<svg width="346" height="39" viewBox="0 0 346 39" fill="none" xmlns="http://www.w3.org/2000/svg">
<path d="M21.639 11V4.7H24.555C24.969 4.7 25.329 4.781 25.635 4.943C25.941 5.099 26.181 5.318 26.355 5.6C26.529 5.882 26.616 6.209 26.616 6.581C26.616 6.953 26.529 7.28 26.355 7.562C26.181 7.844 25.938 8.066 25.626 8.228C25.32 8.384 24.963 8.462 24.555 8.462H22.584V11H21.639ZM22.584 7.661H24.456C24.828 7.661 25.122 7.565 25.338 7.373C25.56 7.175 25.671 6.914 25.671 6.59C25.671 6.266 25.56 6.008 25.338 5.816C25.122 5.624 24.828 5.528 24.456 5.528H22.584V7.661ZM29.6262 11.081C29.1762 11.081 28.7682 10.976 28.4022 10.766C28.0422 10.556 27.7542 10.271 27.5382 9.911C27.3282 9.551 27.2232 9.149 27.2232 8.705C27.2232 8.267 27.3252 7.871 27.5292 7.517C27.7332 7.157 28.0092 6.872 28.3572 6.662C28.7052 6.446 29.0922 6.338 29.5182 6.338C29.9442 6.338 30.3222 6.446 30.6522 6.662C30.9822 6.872 31.2432 7.16 31.4352 7.526C31.6332 7.886 31.7322 8.294 31.7322 8.75V9.002H28.1232C28.1712 9.254 28.2642 9.479 28.4022 9.677C28.5462 9.875 28.7262 10.031 28.9422 10.145C29.1642 10.259 29.4042 10.316 29.6622 10.316C29.8842 10.316 30.0972 10.283 30.3012 10.217C30.5112 10.145 30.6852 10.043 30.8232 9.911L31.3992 10.478C31.1292 10.682 30.8502 10.835 30.5622 10.937C30.2802 11.033 29.9682 11.081 29.6262 11.081ZM28.1322 8.327H30.8412C30.8052 8.087 30.7212 7.877 30.5892 7.697C30.4632 7.511 30.3042 7.367 30.1122 7.265C29.9262 7.157 29.7222 7.103 29.5002 7.103C29.2722 7.103 29.0622 7.154 28.8702 7.256C28.6782 7.358 28.5162 7.502 28.3842 7.688C28.2582 7.868 28.1742 8.081 28.1322 8.327ZM33.0394 11V6.419H33.9394V7.004C34.0834 6.788 34.2604 6.62 34.4704 6.5C34.6864 6.374 34.9294 6.311 35.1994 6.311C35.3854 6.317 35.5384 6.344 35.6584 6.392V7.202C35.5744 7.166 35.4874 7.142 35.3974 7.13C35.3074 7.112 35.2174 7.103 35.1274 7.103C34.8634 7.103 34.6294 7.175 34.4254 7.319C34.2214 7.457 34.0594 7.661 33.9394 7.931V11H33.0394ZM38.4042 11.09C38.0082 11.09 37.6362 11.033 37.2882 10.919C36.9462 10.799 36.6492 10.631 36.3972 10.415L36.8922 9.821C37.1262 10.007 37.3662 10.151 37.6122 10.253C37.8642 10.349 38.1192 10.397 38.3772 10.397C38.7012 10.397 38.9652 10.334 39.1692 10.208C39.3732 10.082 39.4752 9.917 39.4752 9.713C39.4752 9.545 39.4152 9.413 39.2952 9.317C39.1752 9.221 38.9892 9.155 38.7372 9.119L37.9092 9.002C37.4532 8.936 37.1112 8.795 36.8832 8.579C36.6552 8.363 36.5412 8.075 36.5412 7.715C36.5412 7.439 36.6162 7.199 36.7662 6.995C36.9162 6.785 37.1262 6.623 37.3962 6.509C37.6662 6.389 37.9812 6.329 38.3412 6.329C38.6712 6.329 38.9892 6.377 39.2952 6.473C39.6012 6.569 39.8952 6.719 40.1772 6.923L39.7182 7.517C39.4662 7.349 39.2202 7.226 38.9802 7.148C38.7462 7.07 38.5092 7.031 38.2692 7.031C37.9932 7.031 37.7712 7.091 37.6032 7.211C37.4352 7.325 37.3512 7.475 37.3512 7.661C37.3512 7.829 37.4082 7.961 37.5222 8.057C37.6422 8.147 37.8372 8.21 38.1072 8.246L38.9352 8.363C39.3912 8.429 39.7362 8.57 39.9702 8.786C40.2042 8.996 40.3212 9.281 40.3212 9.641C40.3212 9.917 40.2372 10.166 40.0692 10.388C39.9012 10.604 39.6732 10.775 39.3852 10.901C39.0972 11.027 38.7702 11.09 38.4042 11.09ZM43.6848 11.09C43.2408 11.09 42.8358 10.985 42.4698 10.775C42.1098 10.565 41.8248 10.28 41.6148 9.92C41.4048 9.56 41.2998 9.158 41.2998 8.714C41.2998 8.27 41.4048 7.868 41.6148 7.508C41.8248 7.148 42.1098 6.863 42.4698 6.653C42.8358 6.437 43.2408 6.329 43.6848 6.329C44.1348 6.329 44.5398 6.437 44.8998 6.653C45.2598 6.863 45.5448 7.148 45.7548 7.508C45.9648 7.868 46.0698 8.27 46.0698 8.714C46.0698 9.158 45.9648 9.56 45.7548 9.92C45.5448 10.28 45.2598 10.565 44.8998 10.775C44.5398 10.985 44.1348 11.09 43.6848 11.09ZM43.6848 10.298C43.9668 10.298 44.2218 10.229 44.4498 10.091C44.6778 9.947 44.8578 9.755 44.9898 9.515C45.1218 9.275 45.1878 9.005 45.1878 8.705C45.1878 8.411 45.1188 8.147 44.9808 7.913C44.8488 7.673 44.6688 7.481 44.4408 7.337C44.2188 7.193 43.9668 7.121 43.6848 7.121C43.4028 7.121 43.1478 7.193 42.9198 7.337C42.6978 7.481 42.5178 7.673 42.3798 7.913C42.2478 8.147 42.1818 8.411 42.1818 8.705C42.1818 9.005 42.2478 9.275 42.3798 9.515C42.5118 9.755 42.6918 9.947 42.9198 10.091C43.1478 10.229 43.4028 10.298 43.6848 10.298ZM47.3708 11V6.419H48.2708V6.887C48.6248 6.515 49.0838 6.329 49.6478 6.329C50.0018 6.329 50.3108 6.404 50.5748 6.554C50.8448 6.704 51.0548 6.914 51.2048 7.184C51.3608 7.454 51.4388 7.766 51.4388 8.12V11H50.5388V8.273C50.5388 7.913 50.4368 7.631 50.2328 7.427C50.0348 7.217 49.7558 7.112 49.3958 7.112C49.1558 7.112 48.9398 7.163 48.7478 7.265C48.5558 7.367 48.3968 7.514 48.2708 7.706V11H47.3708ZM54.3763 11.081C54.0463 11.081 53.7553 11.024 53.5033 10.91C53.2513 10.79 53.0533 10.625 52.9093 10.415C52.7653 10.205 52.6933 9.962 52.6933 9.686C52.6933 9.254 52.8583 8.915 53.1883 8.669C53.5183 8.417 53.9713 8.291 54.5473 8.291C54.9973 8.291 55.4143 8.378 55.7983 8.552V8.066C55.7983 7.736 55.7023 7.49 55.5103 7.328C55.3243 7.166 55.0483 7.085 54.6823 7.085C54.4723 7.085 54.2533 7.118 54.0253 7.184C53.7973 7.244 53.5423 7.34 53.2603 7.472L52.9273 6.797C53.2753 6.635 53.5993 6.518 53.8993 6.446C54.1993 6.368 54.5023 6.329 54.8083 6.329C55.4023 6.329 55.8613 6.47 56.1853 6.752C56.5153 7.034 56.6803 7.436 56.6803 7.958V11H55.7983V10.604C55.5943 10.766 55.3753 10.886 55.1413 10.964C54.9073 11.042 54.6523 11.081 54.3763 11.081ZM53.5573 9.668C53.5573 9.89 53.6503 10.07 53.8363 10.208C54.0283 10.346 54.2773 10.415 54.5833 10.415C54.8233 10.415 55.0423 10.379 55.2403 10.307C55.4443 10.235 55.6303 10.124 55.7983 9.974V9.2C55.6243 9.098 55.4413 9.026 55.2493 8.984C55.0633 8.936 54.8533 8.912 54.6193 8.912C54.2893 8.912 54.0283 8.981 53.8363 9.119C53.6503 9.251 53.5573 9.434 53.5573 9.668ZM58.1673 11V4.7L59.0673 4.529V11H58.1673ZM60.5773 11V6.419H61.4773V11H60.5773ZM61.0273 5.681C60.8773 5.681 60.7483 5.627 60.6403 5.519C60.5323 5.405 60.4783 5.273 60.4783 5.123C60.4783 4.967 60.5323 4.838 60.6403 4.736C60.7483 4.628 60.8773 4.574 61.0273 4.574C61.1833 4.574 61.3153 4.628 61.4233 4.736C61.5313 4.838 61.5853 4.967 61.5853 5.123C61.5853 5.273 61.5313 5.405 61.4233 5.519C61.3153 5.627 61.1833 5.681 61.0273 5.681ZM62.7172 11V10.334L65.2912 7.193H62.7442V6.419H66.4162V7.076L63.8422 10.226H66.4612V11H62.7172ZM69.7905 11.081C69.3405 11.081 68.9325 10.976 68.5665 10.766C68.2065 10.556 67.9185 10.271 67.7025 9.911C67.4925 9.551 67.3875 9.149 67.3875 8.705C67.3875 8.267 67.4895 7.871 67.6935 7.517C67.8975 7.157 68.1735 6.872 68.5215 6.662C68.8695 6.446 69.2565 6.338 69.6825 6.338C70.1085 6.338 70.4865 6.446 70.8165 6.662C71.1465 6.872 71.4075 7.16 71.5995 7.526C71.7975 7.886 71.8965 8.294 71.8965 8.75V9.002H68.2875C68.3355 9.254 68.4285 9.479 68.5665 9.677C68.7105 9.875 68.8905 10.031 69.1065 10.145C69.3285 10.259 69.5685 10.316 69.8265 10.316C70.0485 10.316 70.2615 10.283 70.4655 10.217C70.6755 10.145 70.8495 10.043 70.9875 9.911L71.5635 10.478C71.2935 10.682 71.0145 10.835 70.7265 10.937C70.4445 11.033 70.1325 11.081 69.7905 11.081ZM68.2965 8.327H71.0055C70.9695 8.087 70.8855 7.877 70.7535 7.697C70.6275 7.511 70.4685 7.367 70.2765 7.265C70.0905 7.157 69.8865 7.103 69.6645 7.103C69.4365 7.103 69.2265 7.154 69.0345 7.256C68.8425 7.358 68.6805 7.502 68.5485 7.688C68.4225 7.868 68.3385 8.081 68.2965 8.327ZM75.3272 11.072C74.9012 11.072 74.5112 10.967 74.1572 10.757C73.8032 10.547 73.5242 10.265 73.3202 9.911C73.1162 9.551 73.0142 9.149 73.0142 8.705C73.0142 8.261 73.1162 7.862 73.3202 7.508C73.5302 7.154 73.8122 6.872 74.1662 6.662C74.5202 6.452 74.9132 6.347 75.3452 6.347C75.5972 6.347 75.8402 6.386 76.0742 6.464C76.3082 6.542 76.5242 6.656 76.7222 6.806V4.7L77.6222 4.529V11H76.7312V10.559C76.3412 10.901 75.8732 11.072 75.3272 11.072ZM75.4442 10.289C75.7082 10.289 75.9482 10.241 76.1642 10.145C76.3862 10.049 76.5722 9.911 76.7222 9.731V7.67C76.5722 7.502 76.3862 7.37 76.1642 7.274C75.9482 7.172 75.7082 7.121 75.4442 7.121C75.1562 7.121 74.8952 7.19 74.6612 7.328C74.4272 7.466 74.2412 7.655 74.1032 7.895C73.9652 8.129 73.8962 8.396 73.8962 8.696C73.8962 8.996 73.9652 9.266 74.1032 9.506C74.2412 9.746 74.4272 9.938 74.6612 10.082C74.8952 10.22 75.1562 10.289 75.4442 10.289ZM81.5769 11V4.7H84.4299C84.8499 4.7 85.2159 4.778 85.5279 4.934C85.8459 5.09 86.0919 5.309 86.2659 5.591C86.4459 5.867 86.5359 6.191 86.5359 6.563C86.5359 6.977 86.4189 7.334 86.1849 7.634C85.9509 7.934 85.6359 8.15 85.2399 8.282L86.6439 11H85.5999L84.2949 8.417H82.5219V11H81.5769ZM82.5219 7.625H84.3579C84.7299 7.625 85.0269 7.532 85.2489 7.346C85.4769 7.154 85.5909 6.896 85.5909 6.572C85.5909 6.26 85.4769 6.008 85.2489 5.816C85.0269 5.624 84.7299 5.528 84.3579 5.528H82.5219V7.625ZM89.775 11.081C89.3251 11.081 88.9171 10.976 88.5511 10.766C88.1911 10.556 87.903 10.271 87.687 9.911C87.477 9.551 87.372 9.149 87.372 8.705C87.372 8.267 87.474 7.871 87.678 7.517C87.882 7.157 88.158 6.872 88.506 6.662C88.8541 6.446 89.2411 6.338 89.6671 6.338C90.0931 6.338 90.4711 6.446 90.8011 6.662C91.1311 6.872 91.3921 7.16 91.584 7.526C91.782 7.886 91.881 8.294 91.881 8.75V9.002H88.272C88.3201 9.254 88.4131 9.479 88.5511 9.677C88.6951 9.875 88.8751 10.031 89.0911 10.145C89.313 10.259 89.553 10.316 89.8111 10.316C90.0331 10.316 90.2461 10.283 90.4501 10.217C90.6601 10.145 90.8341 10.043 90.9721 9.911L91.548 10.478C91.2781 10.682 90.9991 10.835 90.711 10.937C90.4291 11.033 90.1171 11.081 89.775 11.081ZM88.2811 8.327H90.9901C90.9541 8.087 90.8701 7.877 90.7381 7.697C90.6121 7.511 90.4531 7.367 90.2611 7.265C90.0751 7.157 89.871 7.103 89.649 7.103C89.4211 7.103 89.2111 7.154 89.0191 7.256C88.8271 7.358 88.665 7.502 88.533 7.688C88.407 7.868 88.3231 8.081 88.2811 8.327ZM95.3568 11.081C94.9188 11.081 94.5198 10.976 94.1598 10.766C93.7998 10.556 93.5148 10.271 93.3048 9.911C93.1008 9.551 92.9988 9.149 92.9988 8.705C92.9988 8.261 93.1038 7.862 93.3138 7.508C93.5238 7.148 93.8058 6.863 94.1598 6.653C94.5198 6.437 94.9188 6.329 95.3568 6.329C95.7048 6.329 96.0378 6.395 96.3558 6.527C96.6798 6.659 96.9588 6.845 97.1928 7.085L96.6348 7.706C96.4608 7.514 96.2658 7.37 96.0498 7.274C95.8338 7.178 95.6088 7.13 95.3748 7.13C95.0988 7.13 94.8468 7.199 94.6188 7.337C94.3968 7.475 94.2198 7.664 94.0878 7.904C93.9558 8.144 93.8898 8.411 93.8898 8.705C93.8898 8.999 93.9558 9.266 94.0878 9.506C94.2198 9.746 94.3998 9.938 94.6278 10.082C94.8558 10.22 95.1108 10.289 95.3928 10.289C95.6268 10.289 95.8458 10.244 96.0498 10.154C96.2538 10.058 96.4458 9.92 96.6258 9.74L97.1748 10.316C96.9348 10.562 96.6558 10.751 96.3378 10.883C96.0258 11.015 95.6988 11.081 95.3568 11.081ZM100.395 11.09C99.9513 11.09 99.5463 10.985 99.1803 10.775C98.8203 10.565 98.5353 10.28 98.3253 9.92C98.1153 9.56 98.0103 9.158 98.0103 8.714C98.0103 8.27 98.1153 7.868 98.3253 7.508C98.5353 7.148 98.8203 6.863 99.1803 6.653C99.5463 6.437 99.9513 6.329 100.395 6.329C100.845 6.329 101.25 6.437 101.61 6.653C101.97 6.863 102.255 7.148 102.465 7.508C102.675 7.868 102.78 8.27 102.78 8.714C102.78 9.158 102.675 9.56 102.465 9.92C102.255 10.28 101.97 10.565 101.61 10.775C101.25 10.985 100.845 11.09 100.395 11.09ZM100.395 10.298C100.677 10.298 100.932 10.229 101.16 10.091C101.388 9.947 101.568 9.755 101.7 9.515C101.832 9.275 101.898 9.005 101.898 8.705C101.898 8.411 101.829 8.147 101.691 7.913C101.559 7.673 101.379 7.481 101.151 7.337C100.929 7.193 100.677 7.121 100.395 7.121C100.113 7.121 99.8583 7.193 99.6303 7.337C99.4083 7.481 99.2283 7.673 99.0903 7.913C98.9583 8.147 98.8923 8.411 98.8923 8.705C98.8923 9.005 98.9583 9.275 99.0903 9.515C99.2223 9.755 99.4023 9.947 99.6303 10.091C99.8583 10.229 100.113 10.298 100.395 10.298ZM104.081 11V6.419H104.981V6.86C105.323 6.506 105.752 6.329 106.268 6.329C106.58 6.329 106.856 6.398 107.096 6.536C107.342 6.674 107.537 6.86 107.681 7.094C107.873 6.842 108.098 6.653 108.356 6.527C108.614 6.395 108.905 6.329 109.229 6.329C109.571 6.329 109.868 6.404 110.12 6.554C110.378 6.704 110.579 6.914 110.723 7.184C110.873 7.454 110.948 7.766 110.948 8.12V11H110.048V8.273C110.048 7.913 109.952 7.631 109.76 7.427C109.574 7.217 109.319 7.112 108.995 7.112C108.773 7.112 108.572 7.163 108.392 7.265C108.212 7.367 108.056 7.523 107.924 7.733C107.936 7.793 107.945 7.856 107.951 7.922C107.957 7.988 107.96 8.054 107.96 8.12V11H107.069V8.273C107.069 7.913 106.973 7.631 106.781 7.427C106.595 7.217 106.34 7.112 106.016 7.112C105.8 7.112 105.605 7.16 105.431 7.256C105.257 7.346 105.107 7.484 104.981 7.67V11H104.081ZM112.433 11V6.419H113.333V6.86C113.675 6.506 114.104 6.329 114.62 6.329C114.932 6.329 115.208 6.398 115.448 6.536C115.694 6.674 115.889 6.86 116.033 7.094C116.225 6.842 116.45 6.653 116.708 6.527C116.966 6.395 117.257 6.329 117.581 6.329C117.923 6.329 118.22 6.404 118.472 6.554C118.73 6.704 118.931 6.914 119.075 7.184C119.225 7.454 119.3 7.766 119.3 8.12V11H118.4V8.273C118.4 7.913 118.304 7.631 118.112 7.427C117.926 7.217 117.671 7.112 117.347 7.112C117.125 7.112 116.924 7.163 116.744 7.265C116.564 7.367 116.408 7.523 116.276 7.733C116.288 7.793 116.297 7.856 116.303 7.922C116.309 7.988 116.312 8.054 116.312 8.12V11H115.421V8.273C115.421 7.913 115.325 7.631 115.133 7.427C114.947 7.217 114.692 7.112 114.368 7.112C114.152 7.112 113.957 7.16 113.783 7.256C113.609 7.346 113.459 7.484 113.333 7.67V11H112.433ZM122.98 11.081C122.53 11.081 122.122 10.976 121.756 10.766C121.396 10.556 121.108 10.271 120.892 9.911C120.682 9.551 120.577 9.149 120.577 8.705C120.577 8.267 120.679 7.871 120.883 7.517C121.087 7.157 121.363 6.872 121.711 6.662C122.059 6.446 122.446 6.338 122.872 6.338C123.298 6.338 123.676 6.446 124.006 6.662C124.336 6.872 124.597 7.16 124.789 7.526C124.987 7.886 125.086 8.294 125.086 8.75V9.002H121.477C121.525 9.254 121.618 9.479 121.756 9.677C121.9 9.875 122.08 10.031 122.296 10.145C122.518 10.259 122.758 10.316 123.016 10.316C123.238 10.316 123.451 10.283 123.655 10.217C123.865 10.145 124.039 10.043 124.177 9.911L124.753 10.478C124.483 10.682 124.204 10.835 123.916 10.937C123.634 11.033 123.322 11.081 122.98 11.081ZM121.486 8.327H124.195C124.159 8.087 124.075 7.877 123.943 7.697C123.817 7.511 123.658 7.367 123.466 7.265C123.28 7.157 123.076 7.103 122.854 7.103C122.626 7.103 122.416 7.154 122.224 7.256C122.032 7.358 121.87 7.502 121.738 7.688C121.612 7.868 121.528 8.081 121.486 8.327ZM126.393 11V6.419H127.293V6.887C127.647 6.515 128.106 6.329 128.67 6.329C129.024 6.329 129.333 6.404 129.597 6.554C129.867 6.704 130.077 6.914 130.227 7.184C130.383 7.454 130.461 7.766 130.461 8.12V11H129.561V8.273C129.561 7.913 129.459 7.631 129.255 7.427C129.057 7.217 128.778 7.112 128.418 7.112C128.178 7.112 127.962 7.163 127.77 7.265C127.578 7.367 127.419 7.514 127.293 7.706V11H126.393ZM134.056 11.072C133.63 11.072 133.24 10.967 132.886 10.757C132.532 10.547 132.253 10.265 132.049 9.911C131.845 9.551 131.743 9.149 131.743 8.705C131.743 8.261 131.845 7.862 132.049 7.508C132.259 7.154 132.541 6.872 132.895 6.662C133.249 6.452 133.642 6.347 134.074 6.347C134.326 6.347 134.569 6.386 134.803 6.464C135.037 6.542 135.253 6.656 135.451 6.806V4.7L136.351 4.529V11H135.46V10.559C135.07 10.901 134.602 11.072 134.056 11.072ZM134.173 10.289C134.437 10.289 134.677 10.241 134.893 10.145C135.115 10.049 135.301 9.911 135.451 9.731V7.67C135.301 7.502 135.115 7.37 134.893 7.274C134.677 7.172 134.437 7.121 134.173 7.121C133.885 7.121 133.624 7.19 133.39 7.328C133.156 7.466 132.97 7.655 132.832 7.895C132.694 8.129 132.625 8.396 132.625 8.696C132.625 8.996 132.694 9.266 132.832 9.506C132.97 9.746 133.156 9.938 133.39 10.082C133.624 10.22 133.885 10.289 134.173 10.289ZM139.316 11.081C138.986 11.081 138.695 11.024 138.443 10.91C138.191 10.79 137.993 10.625 137.849 10.415C137.705 10.205 137.633 9.962 137.633 9.686C137.633 9.254 137.798 8.915 138.128 8.669C138.458 8.417 138.911 8.291 139.487 8.291C139.937 8.291 140.354 8.378 140.738 8.552V8.066C140.738 7.736 140.642 7.49 140.45 7.328C140.264 7.166 139.988 7.085 139.622 7.085C139.412 7.085 139.193 7.118 138.965 7.184C138.737 7.244 138.482 7.34 138.2 7.472L137.867 6.797C138.215 6.635 138.539 6.518 138.839 6.446C139.139 6.368 139.442 6.329 139.748 6.329C140.342 6.329 140.801 6.47 141.125 6.752C141.455 7.034 141.62 7.436 141.62 7.958V11H140.738V10.604C140.534 10.766 140.315 10.886 140.081 10.964C139.847 11.042 139.592 11.081 139.316 11.081ZM138.497 9.668C138.497 9.89 138.59 10.07 138.776 10.208C138.968 10.346 139.217 10.415 139.523 10.415C139.763 10.415 139.982 10.379 140.18 10.307C140.384 10.235 140.57 10.124 140.738 9.974V9.2C140.564 9.098 140.381 9.026 140.189 8.984C140.003 8.936 139.793 8.912 139.559 8.912C139.229 8.912 138.968 8.981 138.776 9.119C138.59 9.251 138.497 9.434 138.497 9.668ZM144.937 11.081C144.493 11.081 144.154 10.979 143.92 10.775C143.686 10.565 143.569 10.262 143.569 9.866V7.175H142.597V6.419H143.569V5.249L144.46 5.033V6.419H145.81V7.175H144.46V9.659C144.46 9.893 144.511 10.061 144.613 10.163C144.721 10.259 144.895 10.307 145.135 10.307C145.261 10.307 145.372 10.298 145.468 10.28C145.57 10.262 145.678 10.235 145.792 10.199V10.955C145.672 10.997 145.531 11.027 145.369 11.045C145.213 11.069 145.069 11.081 144.937 11.081ZM146.923 11V6.419H147.823V11H146.923ZM147.373 5.681C147.223 5.681 147.094 5.627 146.986 5.519C146.878 5.405 146.824 5.273 146.824 5.123C146.824 4.967 146.878 4.838 146.986 4.736C147.094 4.628 147.223 4.574 147.373 4.574C147.529 4.574 147.661 4.628 147.769 4.736C147.877 4.838 147.931 4.967 147.931 5.123C147.931 5.273 147.877 5.405 147.769 5.519C147.661 5.627 147.529 5.681 147.373 5.681ZM151.511 11.09C151.067 11.09 150.662 10.985 150.296 10.775C149.936 10.565 149.651 10.28 149.441 9.92C149.231 9.56 149.126 9.158 149.126 8.714C149.126 8.27 149.231 7.868 149.441 7.508C149.651 7.148 149.936 6.863 150.296 6.653C150.662 6.437 151.067 6.329 151.511 6.329C151.961 6.329 152.366 6.437 152.726 6.653C153.086 6.863 153.371 7.148 153.581 7.508C153.791 7.868 153.896 8.27 153.896 8.714C153.896 9.158 153.791 9.56 153.581 9.92C153.371 10.28 153.086 10.565 152.726 10.775C152.366 10.985 151.961 11.09 151.511 11.09ZM151.511 10.298C151.793 10.298 152.048 10.229 152.276 10.091C152.504 9.947 152.684 9.755 152.816 9.515C152.948 9.275 153.014 9.005 153.014 8.705C153.014 8.411 152.945 8.147 152.807 7.913C152.675 7.673 152.495 7.481 152.267 7.337C152.045 7.193 151.793 7.121 151.511 7.121C151.229 7.121 150.974 7.193 150.746 7.337C150.524 7.481 150.344 7.673 150.206 7.913C150.074 8.147 150.008 8.411 150.008 8.705C150.008 9.005 150.074 9.275 150.206 9.515C150.338 9.755 150.518 9.947 150.746 10.091C150.974 10.229 151.229 10.298 151.511 10.298ZM155.197 11V6.419H156.097V6.887C156.451 6.515 156.91 6.329 157.474 6.329C157.828 6.329 158.137 6.404 158.401 6.554C158.671 6.704 158.881 6.914 159.031 7.184C159.187 7.454 159.265 7.766 159.265 8.12V11H158.365V8.273C158.365 7.913 158.263 7.631 158.059 7.427C157.861 7.217 157.582 7.112 157.222 7.112C156.982 7.112 156.766 7.163 156.574 7.265C156.382 7.367 156.223 7.514 156.097 7.706V11H155.197ZM162.328 11.09C161.932 11.09 161.56 11.033 161.212 10.919C160.87 10.799 160.573 10.631 160.321 10.415L160.816 9.821C161.05 10.007 161.29 10.151 161.536 10.253C161.788 10.349 162.043 10.397 162.301 10.397C162.625 10.397 162.889 10.334 163.093 10.208C163.297 10.082 163.399 9.917 163.399 9.713C163.399 9.545 163.339 9.413 163.219 9.317C163.099 9.221 162.913 9.155 162.661 9.119L161.833 9.002C161.377 8.936 161.035 8.795 160.807 8.579C160.579 8.363 160.465 8.075 160.465 7.715C160.465 7.439 160.54 7.199 160.69 6.995C160.84 6.785 161.05 6.623 161.32 6.509C161.59 6.389 161.905 6.329 162.265 6.329C162.595 6.329 162.913 6.377 163.219 6.473C163.525 6.569 163.819 6.719 164.101 6.923L163.642 7.517C163.39 7.349 163.144 7.226 162.904 7.148C162.67 7.07 162.433 7.031 162.193 7.031C161.917 7.031 161.695 7.091 161.527 7.211C161.359 7.325 161.275 7.475 161.275 7.661C161.275 7.829 161.332 7.961 161.446 8.057C161.566 8.147 161.761 8.21 162.031 8.246L162.859 8.363C163.315 8.429 163.66 8.57 163.894 8.786C164.128 8.996 164.245 9.281 164.245 9.641C164.245 9.917 164.161 10.166 163.993 10.388C163.825 10.604 163.597 10.775 163.309 10.901C163.021 11.027 162.694 11.09 162.328 11.09Z" fill="#212529"/>
<path d="M21.639 36V29.7H22.908L24.879 33.732L26.85 29.7H28.11V36H27.219V30.852L24.87 35.55L22.521 30.852V36H21.639ZM31.911 36.09C31.467 36.09 31.062 35.985 30.696 35.775C30.336 35.565 30.051 35.28 29.841 34.92C29.631 34.56 29.526 34.158 29.526 33.714C29.526 33.27 29.631 32.868 29.841 32.508C30.051 32.148 30.336 31.863 30.696 31.653C31.062 31.437 31.467 31.329 31.911 31.329C32.361 31.329 32.766 31.437 33.126 31.653C33.486 31.863 33.771 32.148 33.981 32.508C34.191 32.868 34.296 33.27 34.296 33.714C34.296 34.158 34.191 34.56 33.981 34.92C33.771 35.28 33.486 35.565 33.126 35.775C32.766 35.985 32.361 36.09 31.911 36.09ZM31.911 35.298C32.193 35.298 32.448 35.229 32.676 35.091C32.904 34.947 33.084 34.755 33.216 34.515C33.348 34.275 33.414 34.005 33.414 33.705C33.414 33.411 33.345 33.147 33.207 32.913C33.075 32.673 32.895 32.481 32.667 32.337C32.445 32.193 32.193 32.121 31.911 32.121C31.629 32.121 31.374 32.193 31.146 32.337C30.924 32.481 30.744 32.673 30.606 32.913C30.474 33.147 30.408 33.411 30.408 33.705C30.408 34.005 30.474 34.275 30.606 34.515C30.738 34.755 30.918 34.947 31.146 35.091C31.374 35.229 31.629 35.298 31.911 35.298ZM37.775 36.09C37.331 36.09 36.926 35.985 36.56 35.775C36.2 35.565 35.915 35.28 35.705 34.92C35.495 34.56 35.39 34.158 35.39 33.714C35.39 33.27 35.495 32.868 35.705 32.508C35.915 32.148 36.2 31.863 36.56 31.653C36.926 31.437 37.331 31.329 37.775 31.329C38.225 31.329 38.63 31.437 38.99 31.653C39.35 31.863 39.635 32.148 39.845 32.508C40.055 32.868 40.16 33.27 40.16 33.714C40.16 34.158 40.055 34.56 39.845 34.92C39.635 35.28 39.35 35.565 38.99 35.775C38.63 35.985 38.225 36.09 37.775 36.09ZM37.775 35.298C38.057 35.298 38.312 35.229 38.54 35.091C38.768 34.947 38.948 34.755 39.08 34.515C39.212 34.275 39.278 34.005 39.278 33.705C39.278 33.411 39.209 33.147 39.071 32.913C38.939 32.673 38.759 32.481 38.531 32.337C38.309 32.193 38.057 32.121 37.775 32.121C37.493 32.121 37.238 32.193 37.01 32.337C36.788 32.481 36.608 32.673 36.47 32.913C36.338 33.147 36.272 33.411 36.272 33.705C36.272 34.005 36.338 34.275 36.47 34.515C36.602 34.755 36.782 34.947 37.01 35.091C37.238 35.229 37.493 35.298 37.775 35.298ZM43.5671 36.072C43.1411 36.072 42.7511 35.967 42.3971 35.757C42.0431 35.547 41.7641 35.265 41.5601 34.911C41.3561 34.551 41.2541 34.149 41.2541 33.705C41.2541 33.261 41.3561 32.862 41.5601 32.508C41.7701 32.154 42.0521 31.872 42.4061 31.662C42.7601 31.452 43.1531 31.347 43.5851 31.347C43.8371 31.347 44.0801 31.386 44.3141 31.464C44.5481 31.542 44.7641 31.656 44.9621 31.806V29.7L45.8621 29.529V36H44.9711V35.559C44.5811 35.901 44.1131 36.072 43.5671 36.072ZM43.6841 35.289C43.9481 35.289 44.1881 35.241 44.4041 35.145C44.6261 35.049 44.8121 34.911 44.9621 34.731V32.67C44.8121 32.502 44.6261 32.37 44.4041 32.274C44.1881 32.172 43.9481 32.121 43.6841 32.121C43.3961 32.121 43.1351 32.19 42.9011 32.328C42.6671 32.466 42.4811 32.655 42.3431 32.895C42.2051 33.129 42.1361 33.396 42.1361 33.696C42.1361 33.996 42.2051 34.266 42.3431 34.506C42.4811 34.746 42.6671 34.938 42.9011 35.082C43.1351 35.22 43.3961 35.289 43.6841 35.289ZM49.1867 36L51.7877 29.7H52.9037L55.4777 36H54.4517L53.7227 34.155H50.9057L50.1677 36H49.1867ZM51.2117 33.372H53.4167L52.3187 30.6L51.2117 33.372ZM56.4693 36V31.419H57.3693V31.887C57.7233 31.515 58.1823 31.329 58.7463 31.329C59.1003 31.329 59.4093 31.404 59.6733 31.554C59.9433 31.704 60.1533 31.914 60.3033 32.184C60.4593 32.454 60.5373 32.766 60.5373 33.12V36H59.6373V33.273C59.6373 32.913 59.5353 32.631 59.3313 32.427C59.1333 32.217 58.8543 32.112 58.4943 32.112C58.2543 32.112 58.0383 32.163 57.8463 32.265C57.6543 32.367 57.4953 32.514 57.3693 32.706V36H56.4693ZM63.4747 36.081C63.1447 36.081 62.8537 36.024 62.6017 35.91C62.3497 35.79 62.1517 35.625 62.0077 35.415C61.8637 35.205 61.7917 34.962 61.7917 34.686C61.7917 34.254 61.9567 33.915 62.2867 33.669C62.6167 33.417 63.0697 33.291 63.6457 33.291C64.0957 33.291 64.5127 33.378 64.8967 33.552V33.066C64.8967 32.736 64.8007 32.49 64.6087 32.328C64.4227 32.166 64.1467 32.085 63.7807 32.085C63.5707 32.085 63.3517 32.118 63.1237 32.184C62.8957 32.244 62.6407 32.34 62.3587 32.472L62.0257 31.797C62.3737 31.635 62.6977 31.518 62.9977 31.446C63.2977 31.368 63.6007 31.329 63.9067 31.329C64.5007 31.329 64.9597 31.47 65.2837 31.752C65.6137 32.034 65.7787 32.436 65.7787 32.958V36H64.8967V35.604C64.6927 35.766 64.4737 35.886 64.2397 35.964C64.0057 36.042 63.7507 36.081 63.4747 36.081ZM62.6557 34.668C62.6557 34.89 62.7487 35.07 62.9347 35.208C63.1267 35.346 63.3757 35.415 63.6817 35.415C63.9217 35.415 64.1407 35.379 64.3387 35.307C64.5427 35.235 64.7287 35.124 64.8967 34.974V34.2C64.7227 34.098 64.5397 34.026 64.3477 33.984C64.1617 33.936 63.9517 33.912 63.7177 33.912C63.3877 33.912 63.1267 33.981 62.9347 34.119C62.7487 34.251 62.6557 34.434 62.6557 34.668ZM67.2658 36V29.7L68.1658 29.529V36H67.2658ZM69.9817 37.935C69.8857 37.935 69.7957 37.929 69.7117 37.917C69.6277 37.911 69.5587 37.899 69.5047 37.881V37.089C69.6127 37.113 69.7447 37.125 69.9007 37.125C70.3207 37.125 70.6237 36.9 70.8097 36.45L71.0077 36.009L69.1717 31.419H70.1707L71.5027 34.911L72.9787 31.419H73.9507L71.7367 36.567C71.5927 36.891 71.4397 37.152 71.2777 37.35C71.1157 37.554 70.9297 37.701 70.7197 37.791C70.5097 37.887 70.2637 37.935 69.9817 37.935ZM76.5347 36.09C76.1387 36.09 75.7667 36.033 75.4187 35.919C75.0767 35.799 74.7797 35.631 74.5277 35.415L75.0227 34.821C75.2567 35.007 75.4967 35.151 75.7427 35.253C75.9947 35.349 76.2497 35.397 76.5077 35.397C76.8317 35.397 77.0957 35.334 77.2997 35.208C77.5037 35.082 77.6057 34.917 77.6057 34.713C77.6057 34.545 77.5457 34.413 77.4257 34.317C77.3057 34.221 77.1197 34.155 76.8677 34.119L76.0397 34.002C75.5837 33.936 75.2417 33.795 75.0137 33.579C74.7857 33.363 74.6717 33.075 74.6717 32.715C74.6717 32.439 74.7467 32.199 74.8967 31.995C75.0467 31.785 75.2567 31.623 75.5267 31.509C75.7967 31.389 76.1117 31.329 76.4717 31.329C76.8017 31.329 77.1197 31.377 77.4257 31.473C77.7317 31.569 78.0257 31.719 78.3077 31.923L77.8487 32.517C77.5967 32.349 77.3507 32.226 77.1107 32.148C76.8767 32.07 76.6397 32.031 76.3997 32.031C76.1237 32.031 75.9017 32.091 75.7337 32.211C75.5657 32.325 75.4817 32.475 75.4817 32.661C75.4817 32.829 75.5387 32.961 75.6527 33.057C75.7727 33.147 75.9677 33.21 76.2377 33.246L77.0657 33.363C77.5217 33.429 77.8667 33.57 78.1007 33.786C78.3347 33.996 78.4517 34.281 78.4517 34.641C78.4517 34.917 78.3677 35.166 78.1997 35.388C78.0317 35.604 77.8037 35.775 77.5157 35.901C77.2277 36.027 76.9007 36.09 76.5347 36.09ZM79.5933 36V31.419H80.4933V36H79.5933ZM80.0433 30.681C79.8933 30.681 79.7643 30.627 79.6563 30.519C79.5483 30.405 79.4943 30.273 79.4943 30.123C79.4943 29.967 79.5483 29.838 79.6563 29.736C79.7643 29.628 79.8933 29.574 80.0433 29.574C80.1993 29.574 80.3313 29.628 80.4393 29.736C80.5473 29.838 80.6013 29.967 80.6013 30.123C80.6013 30.273 80.5473 30.405 80.4393 30.519C80.3313 30.627 80.1993 30.681 80.0433 30.681ZM83.5783 36.09C83.1823 36.09 82.8103 36.033 82.4623 35.919C82.1203 35.799 81.8233 35.631 81.5713 35.415L82.0663 34.821C82.3003 35.007 82.5403 35.151 82.7863 35.253C83.0383 35.349 83.2933 35.397 83.5513 35.397C83.8753 35.397 84.1393 35.334 84.3433 35.208C84.5473 35.082 84.6493 34.917 84.6493 34.713C84.6493 34.545 84.5893 34.413 84.4693 34.317C84.3493 34.221 84.1633 34.155 83.9113 34.119L83.0833 34.002C82.6273 33.936 82.2853 33.795 82.0573 33.579C81.8293 33.363 81.7153 33.075 81.7153 32.715C81.7153 32.439 81.7903 32.199 81.9403 31.995C82.0903 31.785 82.3003 31.623 82.5703 31.509C82.8403 31.389 83.1553 31.329 83.5153 31.329C83.8453 31.329 84.1633 31.377 84.4693 31.473C84.7753 31.569 85.0693 31.719 85.3513 31.923L84.8923 32.517C84.6403 32.349 84.3943 32.226 84.1543 32.148C83.9203 32.07 83.6833 32.031 83.4433 32.031C83.1673 32.031 82.9453 32.091 82.7773 32.211C82.6093 32.325 82.5253 32.475 82.5253 32.661C82.5253 32.829 82.5823 32.961 82.6963 33.057C82.8163 33.147 83.0113 33.21 83.2813 33.246L84.1093 33.363C84.5653 33.429 84.9103 33.57 85.1443 33.786C85.3783 33.996 85.4953 34.281 85.4953 34.641C85.4953 34.917 85.4113 35.166 85.2433 35.388C85.0753 35.604 84.8473 35.775 84.5593 35.901C84.2713 36.027 83.9443 36.09 83.5783 36.09Z" fill="#212529"/>
<path d="M201.583 11L199.009 4.7H200.026L202.159 10.064L204.328 4.7H205.3L202.69 11H201.583ZM206.292 11V6.419H207.192V11H206.292ZM206.742 5.681C206.592 5.681 206.463 5.627 206.355 5.519C206.247 5.405 206.193 5.273 206.193 5.123C206.193 4.967 206.247 4.838 206.355 4.736C206.463 4.628 206.592 4.574 206.742 4.574C206.898 4.574 207.03 4.628 207.138 4.736C207.246 4.838 207.3 4.967 207.3 5.123C207.3 5.273 207.246 5.405 207.138 5.519C207.03 5.627 206.898 5.681 206.742 5.681ZM210.277 11.09C209.881 11.09 209.509 11.033 209.161 10.919C208.819 10.799 208.522 10.631 208.27 10.415L208.765 9.821C208.999 10.007 209.239 10.151 209.485 10.253C209.737 10.349 209.992 10.397 210.25 10.397C210.574 10.397 210.838 10.334 211.042 10.208C211.246 10.082 211.348 9.917 211.348 9.713C211.348 9.545 211.288 9.413 211.168 9.317C211.048 9.221 210.862 9.155 210.61 9.119L209.782 9.002C209.326 8.936 208.984 8.795 208.756 8.579C208.528 8.363 208.414 8.075 208.414 7.715C208.414 7.439 208.489 7.199 208.639 6.995C208.789 6.785 208.999 6.623 209.269 6.509C209.539 6.389 209.854 6.329 210.214 6.329C210.544 6.329 210.862 6.377 211.168 6.473C211.474 6.569 211.768 6.719 212.05 6.923L211.591 7.517C211.339 7.349 211.093 7.226 210.853 7.148C210.619 7.07 210.382 7.031 210.142 7.031C209.866 7.031 209.644 7.091 209.476 7.211C209.308 7.325 209.224 7.475 209.224 7.661C209.224 7.829 209.281 7.961 209.395 8.057C209.515 8.147 209.71 8.21 209.98 8.246L210.808 8.363C211.264 8.429 211.609 8.57 211.843 8.786C212.077 8.996 212.194 9.281 212.194 9.641C212.194 9.917 212.11 10.166 211.942 10.388C211.774 10.604 211.546 10.775 211.258 10.901C210.97 11.027 210.643 11.09 210.277 11.09ZM215.108 11.09C214.754 11.09 214.442 11.015 214.172 10.865C213.902 10.715 213.692 10.505 213.542 10.235C213.392 9.959 213.317 9.644 213.317 9.29V6.419H214.208V9.137C214.208 9.497 214.31 9.782 214.514 9.992C214.724 10.202 215.003 10.307 215.351 10.307C215.597 10.307 215.816 10.256 216.008 10.154C216.2 10.046 216.356 9.896 216.476 9.704V6.419H217.376V11H216.476V10.532C216.122 10.904 215.666 11.09 215.108 11.09ZM220.341 11.081C220.011 11.081 219.72 11.024 219.468 10.91C219.216 10.79 219.018 10.625 218.874 10.415C218.73 10.205 218.658 9.962 218.658 9.686C218.658 9.254 218.823 8.915 219.153 8.669C219.483 8.417 219.936 8.291 220.512 8.291C220.962 8.291 221.379 8.378 221.763 8.552V8.066C221.763 7.736 221.667 7.49 221.475 7.328C221.289 7.166 221.013 7.085 220.647 7.085C220.437 7.085 220.218 7.118 219.99 7.184C219.762 7.244 219.507 7.34 219.225 7.472L218.892 6.797C219.24 6.635 219.564 6.518 219.864 6.446C220.164 6.368 220.467 6.329 220.773 6.329C221.367 6.329 221.826 6.47 222.15 6.752C222.48 7.034 222.645 7.436 222.645 7.958V11H221.763V10.604C221.559 10.766 221.34 10.886 221.106 10.964C220.872 11.042 220.617 11.081 220.341 11.081ZM219.522 9.668C219.522 9.89 219.615 10.07 219.801 10.208C219.993 10.346 220.242 10.415 220.548 10.415C220.788 10.415 221.007 10.379 221.205 10.307C221.409 10.235 221.595 10.124 221.763 9.974V9.2C221.589 9.098 221.406 9.026 221.214 8.984C221.028 8.936 220.818 8.912 220.584 8.912C220.254 8.912 219.993 8.981 219.801 9.119C219.615 9.251 219.522 9.434 219.522 9.668ZM224.132 11V4.7L225.032 4.529V11H224.132ZM226.542 11V6.419H227.442V11H226.542ZM226.992 5.681C226.842 5.681 226.713 5.627 226.605 5.519C226.497 5.405 226.443 5.273 226.443 5.123C226.443 4.967 226.497 4.838 226.605 4.736C226.713 4.628 226.842 4.574 226.992 4.574C227.148 4.574 227.28 4.628 227.388 4.736C227.496 4.838 227.55 4.967 227.55 5.123C227.55 5.273 227.496 5.405 227.388 5.519C227.28 5.627 227.148 5.681 226.992 5.681ZM228.682 11V10.334L231.256 7.193H228.709V6.419H232.381V7.076L229.807 10.226H232.426V11H228.682ZM235.148 11.081C234.818 11.081 234.527 11.024 234.275 10.91C234.023 10.79 233.825 10.625 233.681 10.415C233.537 10.205 233.465 9.962 233.465 9.686C233.465 9.254 233.63 8.915 233.96 8.669C234.29 8.417 234.743 8.291 235.319 8.291C235.769 8.291 236.186 8.378 236.57 8.552V8.066C236.57 7.736 236.474 7.49 236.282 7.328C236.096 7.166 235.82 7.085 235.454 7.085C235.244 7.085 235.025 7.118 234.797 7.184C234.569 7.244 234.314 7.34 234.032 7.472L233.699 6.797C234.047 6.635 234.371 6.518 234.671 6.446C234.971 6.368 235.274 6.329 235.58 6.329C236.174 6.329 236.633 6.47 236.957 6.752C237.287 7.034 237.452 7.436 237.452 7.958V11H236.57V10.604C236.366 10.766 236.147 10.886 235.913 10.964C235.679 11.042 235.424 11.081 235.148 11.081ZM234.329 9.668C234.329 9.89 234.422 10.07 234.608 10.208C234.8 10.346 235.049 10.415 235.355 10.415C235.595 10.415 235.814 10.379 236.012 10.307C236.216 10.235 236.402 10.124 236.57 9.974V9.2C236.396 9.098 236.213 9.026 236.021 8.984C235.835 8.936 235.625 8.912 235.391 8.912C235.061 8.912 234.8 8.981 234.608 9.119C234.422 9.251 234.329 9.434 234.329 9.668ZM240.77 11.081C240.326 11.081 239.987 10.979 239.753 10.775C239.519 10.565 239.402 10.262 239.402 9.866V7.175H238.43V6.419H239.402V5.249L240.293 5.033V6.419H241.643V7.175H240.293V9.659C240.293 9.893 240.344 10.061 240.446 10.163C240.554 10.259 240.728 10.307 240.968 10.307C241.094 10.307 241.205 10.298 241.301 10.28C241.403 10.262 241.511 10.235 241.625 10.199V10.955C241.505 10.997 241.364 11.027 241.202 11.045C241.046 11.069 240.902 11.081 240.77 11.081ZM242.756 11V6.419H243.656V11H242.756ZM243.206 5.681C243.056 5.681 242.927 5.627 242.819 5.519C242.711 5.405 242.657 5.273 242.657 5.123C242.657 4.967 242.711 4.838 242.819 4.736C242.927 4.628 243.056 4.574 243.206 4.574C243.362 4.574 243.494 4.628 243.602 4.736C243.71 4.838 243.764 4.967 243.764 5.123C243.764 5.273 243.71 5.405 243.602 5.519C243.494 5.627 243.362 5.681 243.206 5.681ZM247.344 11.09C246.9 11.09 246.495 10.985 246.129 10.775C245.769 10.565 245.484 10.28 245.274 9.92C245.064 9.56 244.959 9.158 244.959 8.714C244.959 8.27 245.064 7.868 245.274 7.508C245.484 7.148 245.769 6.863 246.129 6.653C246.495 6.437 246.9 6.329 247.344 6.329C247.794 6.329 248.199 6.437 248.559 6.653C248.919 6.863 249.204 7.148 249.414 7.508C249.624 7.868 249.729 8.27 249.729 8.714C249.729 9.158 249.624 9.56 249.414 9.92C249.204 10.28 248.919 10.565 248.559 10.775C248.199 10.985 247.794 11.09 247.344 11.09ZM247.344 10.298C247.626 10.298 247.881 10.229 248.109 10.091C248.337 9.947 248.517 9.755 248.649 9.515C248.781 9.275 248.847 9.005 248.847 8.705C248.847 8.411 248.778 8.147 248.64 7.913C248.508 7.673 248.328 7.481 248.1 7.337C247.878 7.193 247.626 7.121 247.344 7.121C247.062 7.121 246.807 7.193 246.579 7.337C246.357 7.481 246.177 7.673 246.039 7.913C245.907 8.147 245.841 8.411 245.841 8.705C245.841 9.005 245.907 9.275 246.039 9.515C246.171 9.755 246.351 9.947 246.579 10.091C246.807 10.229 247.062 10.298 247.344 10.298ZM251.03 11V6.419H251.93V6.887C252.284 6.515 252.743 6.329 253.307 6.329C253.661 6.329 253.97 6.404 254.234 6.554C254.504 6.704 254.714 6.914 254.864 7.184C255.02 7.454 255.098 7.766 255.098 8.12V11H254.198V8.273C254.198 7.913 254.096 7.631 253.892 7.427C253.694 7.217 253.415 7.112 253.055 7.112C252.815 7.112 252.599 7.163 252.407 7.265C252.215 7.367 252.056 7.514 251.93 7.706V11H251.03ZM258.161 11.09C257.765 11.09 257.393 11.033 257.045 10.919C256.703 10.799 256.406 10.631 256.154 10.415L256.649 9.821C256.883 10.007 257.123 10.151 257.369 10.253C257.621 10.349 257.876 10.397 258.134 10.397C258.458 10.397 258.722 10.334 258.926 10.208C259.13 10.082 259.232 9.917 259.232 9.713C259.232 9.545 259.172 9.413 259.052 9.317C258.932 9.221 258.746 9.155 258.494 9.119L257.666 9.002C257.21 8.936 256.868 8.795 256.64 8.579C256.412 8.363 256.298 8.075 256.298 7.715C256.298 7.439 256.373 7.199 256.523 6.995C256.673 6.785 256.883 6.623 257.153 6.509C257.423 6.389 257.738 6.329 258.098 6.329C258.428 6.329 258.746 6.377 259.052 6.473C259.358 6.569 259.652 6.719 259.934 6.923L259.475 7.517C259.223 7.349 258.977 7.226 258.737 7.148C258.503 7.07 258.266 7.031 258.026 7.031C257.75 7.031 257.528 7.091 257.36 7.211C257.192 7.325 257.108 7.475 257.108 7.661C257.108 7.829 257.165 7.961 257.279 8.057C257.399 8.147 257.594 8.21 257.864 8.246L258.692 8.363C259.148 8.429 259.493 8.57 259.727 8.786C259.961 8.996 260.078 9.281 260.078 9.641C260.078 9.917 259.994 10.166 259.826 10.388C259.658 10.604 259.43 10.775 259.142 10.901C258.854 11.027 258.527 11.09 258.161 11.09ZM265 11.081C264.67 11.081 264.379 11.024 264.127 10.91C263.875 10.79 263.677 10.625 263.533 10.415C263.389 10.205 263.317 9.962 263.317 9.686C263.317 9.254 263.482 8.915 263.812 8.669C264.142 8.417 264.595 8.291 265.171 8.291C265.621 8.291 266.038 8.378 266.422 8.552V8.066C266.422 7.736 266.326 7.49 266.134 7.328C265.948 7.166 265.672 7.085 265.306 7.085C265.096 7.085 264.877 7.118 264.649 7.184C264.421 7.244 264.166 7.34 263.884 7.472L263.551 6.797C263.899 6.635 264.223 6.518 264.523 6.446C264.823 6.368 265.126 6.329 265.432 6.329C266.026 6.329 266.485 6.47 266.809 6.752C267.139 7.034 267.304 7.436 267.304 7.958V11H266.422V10.604C266.218 10.766 265.999 10.886 265.765 10.964C265.531 11.042 265.276 11.081 265 11.081ZM264.181 9.668C264.181 9.89 264.274 10.07 264.46 10.208C264.652 10.346 264.901 10.415 265.207 10.415C265.447 10.415 265.666 10.379 265.864 10.307C266.068 10.235 266.254 10.124 266.422 9.974V9.2C266.248 9.098 266.065 9.026 265.873 8.984C265.687 8.936 265.477 8.912 265.243 8.912C264.913 8.912 264.652 8.981 264.46 9.119C264.274 9.251 264.181 9.434 264.181 9.668ZM268.791 11V6.419H269.691V6.887C270.045 6.515 270.504 6.329 271.068 6.329C271.422 6.329 271.731 6.404 271.995 6.554C272.265 6.704 272.475 6.914 272.625 7.184C272.781 7.454 272.859 7.766 272.859 8.12V11H271.959V8.273C271.959 7.913 271.857 7.631 271.653 7.427C271.455 7.217 271.176 7.112 270.816 7.112C270.576 7.112 270.36 7.163 270.168 7.265C269.976 7.367 269.817 7.514 269.691 7.706V11H268.791ZM276.453 11.072C276.027 11.072 275.637 10.967 275.283 10.757C274.929 10.547 274.65 10.265 274.446 9.911C274.242 9.551 274.14 9.149 274.14 8.705C274.14 8.261 274.242 7.862 274.446 7.508C274.656 7.154 274.938 6.872 275.292 6.662C275.646 6.452 276.039 6.347 276.471 6.347C276.723 6.347 276.966 6.386 277.2 6.464C277.434 6.542 277.65 6.656 277.848 6.806V4.7L278.748 4.529V11H277.857V10.559C277.467 10.901 276.999 11.072 276.453 11.072ZM276.57 10.289C276.834 10.289 277.074 10.241 277.29 10.145C277.512 10.049 277.698 9.911 277.848 9.731V7.67C277.698 7.502 277.512 7.37 277.29 7.274C277.074 7.172 276.834 7.121 276.57 7.121C276.282 7.121 276.021 7.19 275.787 7.328C275.553 7.466 275.367 7.655 275.229 7.895C275.091 8.129 275.022 8.396 275.022 8.696C275.022 8.996 275.091 9.266 275.229 9.506C275.367 9.746 275.553 9.938 275.787 10.082C276.021 10.22 276.282 10.289 276.57 10.289ZM282.703 11V4.7H285.556C285.976 4.7 286.342 4.778 286.654 4.934C286.972 5.09 287.218 5.309 287.392 5.591C287.572 5.867 287.662 6.191 287.662 6.563C287.662 6.977 287.545 7.334 287.311 7.634C287.077 7.934 286.762 8.15 286.366 8.282L287.77 11H286.726L285.421 8.417H283.648V11H282.703ZM283.648 7.625H285.484C285.856 7.625 286.153 7.532 286.375 7.346C286.603 7.154 286.717 6.896 286.717 6.572C286.717 6.26 286.603 6.008 286.375 5.816C286.153 5.624 285.856 5.528 285.484 5.528H283.648V7.625ZM290.901 11.081C290.451 11.081 290.043 10.976 289.677 10.766C289.317 10.556 289.029 10.271 288.813 9.911C288.603 9.551 288.498 9.149 288.498 8.705C288.498 8.267 288.6 7.871 288.804 7.517C289.008 7.157 289.284 6.872 289.632 6.662C289.98 6.446 290.367 6.338 290.793 6.338C291.219 6.338 291.597 6.446 291.927 6.662C292.257 6.872 292.518 7.16 292.71 7.526C292.908 7.886 293.007 8.294 293.007 8.75V9.002H289.398C289.446 9.254 289.539 9.479 289.677 9.677C289.821 9.875 290.001 10.031 290.217 10.145C290.439 10.259 290.679 10.316 290.937 10.316C291.159 10.316 291.372 10.283 291.576 10.217C291.786 10.145 291.96 10.043 292.098 9.911L292.674 10.478C292.404 10.682 292.125 10.835 291.837 10.937C291.555 11.033 291.243 11.081 290.901 11.081ZM289.407 8.327H292.116C292.08 8.087 291.996 7.877 291.864 7.697C291.738 7.511 291.579 7.367 291.387 7.265C291.201 7.157 290.997 7.103 290.775 7.103C290.547 7.103 290.337 7.154 290.145 7.256C289.953 7.358 289.791 7.502 289.659 7.688C289.533 7.868 289.449 8.081 289.407 8.327ZM294.314 12.836V6.419H295.205V6.86C295.589 6.518 296.057 6.347 296.609 6.347C297.041 6.347 297.431 6.452 297.779 6.662C298.133 6.872 298.412 7.154 298.616 7.508C298.82 7.862 298.922 8.261 298.922 8.705C298.922 9.149 298.817 9.551 298.607 9.911C298.403 10.265 298.124 10.547 297.77 10.757C297.422 10.967 297.029 11.072 296.591 11.072C296.339 11.072 296.096 11.033 295.862 10.955C295.628 10.871 295.412 10.754 295.214 10.604V12.836H294.314ZM296.492 10.289C296.786 10.289 297.047 10.22 297.275 10.082C297.509 9.944 297.695 9.758 297.833 9.524C297.971 9.284 298.04 9.014 298.04 8.714C298.04 8.414 297.971 8.144 297.833 7.904C297.695 7.664 297.509 7.475 297.275 7.337C297.047 7.199 296.786 7.13 296.492 7.13C296.234 7.13 295.994 7.178 295.772 7.274C295.55 7.37 295.364 7.505 295.214 7.679V9.749C295.364 9.917 295.55 10.049 295.772 10.145C296 10.241 296.24 10.289 296.492 10.289ZM302.409 11.09C301.965 11.09 301.56 10.985 301.194 10.775C300.834 10.565 300.549 10.28 300.339 9.92C300.129 9.56 300.024 9.158 300.024 8.714C300.024 8.27 300.129 7.868 300.339 7.508C300.549 7.148 300.834 6.863 301.194 6.653C301.56 6.437 301.965 6.329 302.409 6.329C302.859 6.329 303.264 6.437 303.624 6.653C303.984 6.863 304.269 7.148 304.479 7.508C304.689 7.868 304.794 8.27 304.794 8.714C304.794 9.158 304.689 9.56 304.479 9.92C304.269 10.28 303.984 10.565 303.624 10.775C303.264 10.985 302.859 11.09 302.409 11.09ZM302.409 10.298C302.691 10.298 302.946 10.229 303.174 10.091C303.402 9.947 303.582 9.755 303.714 9.515C303.846 9.275 303.912 9.005 303.912 8.705C303.912 8.411 303.843 8.147 303.705 7.913C303.573 7.673 303.393 7.481 303.165 7.337C302.943 7.193 302.691 7.121 302.409 7.121C302.127 7.121 301.872 7.193 301.644 7.337C301.422 7.481 301.242 7.673 301.104 7.913C300.972 8.147 300.906 8.411 300.906 8.705C300.906 9.005 300.972 9.275 301.104 9.515C301.236 9.755 301.416 9.947 301.644 10.091C301.872 10.229 302.127 10.298 302.409 10.298ZM306.095 11V6.419H306.995V7.004C307.139 6.788 307.316 6.62 307.526 6.5C307.742 6.374 307.985 6.311 308.255 6.311C308.441 6.317 308.594 6.344 308.714 6.392V7.202C308.63 7.166 308.543 7.142 308.453 7.13C308.363 7.112 308.273 7.103 308.183 7.103C307.919 7.103 307.685 7.175 307.481 7.319C307.277 7.457 307.115 7.661 306.995 7.931V11H306.095ZM311.847 11.081C311.403 11.081 311.064 10.979 310.83 10.775C310.596 10.565 310.479 10.262 310.479 9.866V7.175H309.507V6.419H310.479V5.249L311.37 5.033V6.419H312.72V7.175H311.37V9.659C311.37 9.893 311.421 10.061 311.523 10.163C311.631 10.259 311.805 10.307 312.045 10.307C312.171 10.307 312.282 10.298 312.378 10.28C312.48 10.262 312.588 10.235 312.702 10.199V10.955C312.582 10.997 312.441 11.027 312.279 11.045C312.123 11.069 311.979 11.081 311.847 11.081ZM315.496 11.09C315.1 11.09 314.728 11.033 314.38 10.919C314.038 10.799 313.741 10.631 313.489 10.415L313.984 9.821C314.218 10.007 314.458 10.151 314.704 10.253C314.956 10.349 315.211 10.397 315.469 10.397C315.793 10.397 316.057 10.334 316.261 10.208C316.465 10.082 316.567 9.917 316.567 9.713C316.567 9.545 316.507 9.413 316.387 9.317C316.267 9.221 316.081 9.155 315.829 9.119L315.001 9.002C314.545 8.936 314.203 8.795 313.975 8.579C313.747 8.363 313.633 8.075 313.633 7.715C313.633 7.439 313.708 7.199 313.858 6.995C314.008 6.785 314.218 6.623 314.488 6.509C314.758 6.389 315.073 6.329 315.433 6.329C315.763 6.329 316.081 6.377 316.387 6.473C316.693 6.569 316.987 6.719 317.269 6.923L316.81 7.517C316.558 7.349 316.312 7.226 316.072 7.148C315.838 7.07 315.601 7.031 315.361 7.031C315.085 7.031 314.863 7.091 314.695 7.211C314.527 7.325 314.443 7.475 314.443 7.661C314.443 7.829 314.5 7.961 314.614 8.057C314.734 8.147 314.929 8.21 315.199 8.246L316.027 8.363C316.483 8.429 316.828 8.57 317.062 8.786C317.296 8.996 317.413 9.281 317.413 9.641C317.413 9.917 317.329 10.166 317.161 10.388C316.993 10.604 316.765 10.775 316.477 10.901C316.189 11.027 315.862 11.09 315.496 11.09Z" fill="#212529"/>
<path d="M199.639 36V29.7H202.555C202.969 29.7 203.329 29.781 203.635 29.943C203.941 30.099 204.181 30.318 204.355 30.6C204.529 30.882 204.616 31.209 204.616 31.581C204.616 31.953 204.529 32.28 204.355 32.562C204.181 32.844 203.938 33.066 203.626 33.228C203.32 33.384 202.963 33.462 202.555 33.462H200.584V36H199.639ZM200.584 32.661H202.456C202.828 32.661 203.122 32.565 203.338 32.373C203.56 32.175 203.671 31.914 203.671 31.59C203.671 31.266 203.56 31.008 203.338 30.816C203.122 30.624 202.828 30.528 202.456 30.528H200.584V32.661ZM207.626 36.081C207.176 36.081 206.768 35.976 206.402 35.766C206.042 35.556 205.754 35.271 205.538 34.911C205.328 34.551 205.223 34.149 205.223 33.705C205.223 33.267 205.325 32.871 205.529 32.517C205.733 32.157 206.009 31.872 206.357 31.662C206.705 31.446 207.092 31.338 207.518 31.338C207.944 31.338 208.322 31.446 208.652 31.662C208.982 31.872 209.243 32.16 209.435 32.526C209.633 32.886 209.732 33.294 209.732 33.75V34.002H206.123C206.171 34.254 206.264 34.479 206.402 34.677C206.546 34.875 206.726 35.031 206.942 35.145C207.164 35.259 207.404 35.316 207.662 35.316C207.884 35.316 208.097 35.283 208.301 35.217C208.511 35.145 208.685 35.043 208.823 34.911L209.399 35.478C209.129 35.682 208.85 35.835 208.562 35.937C208.28 36.033 207.968 36.081 207.626 36.081ZM206.132 33.327H208.841C208.805 33.087 208.721 32.877 208.589 32.697C208.463 32.511 208.304 32.367 208.112 32.265C207.926 32.157 207.722 32.103 207.5 32.103C207.272 32.103 207.062 32.154 206.87 32.256C206.678 32.358 206.516 32.502 206.384 32.688C206.258 32.868 206.174 33.081 206.132 33.327ZM211.039 36V31.419H211.939V32.004C212.083 31.788 212.26 31.62 212.47 31.5C212.686 31.374 212.929 31.311 213.199 31.311C213.385 31.317 213.538 31.344 213.658 31.392V32.202C213.574 32.166 213.487 32.142 213.397 32.13C213.307 32.112 213.217 32.103 213.127 32.103C212.863 32.103 212.629 32.175 212.425 32.319C212.221 32.457 212.059 32.661 211.939 32.931V36H211.039ZM216.404 36.09C216.008 36.09 215.636 36.033 215.288 35.919C214.946 35.799 214.649 35.631 214.397 35.415L214.892 34.821C215.126 35.007 215.366 35.151 215.612 35.253C215.864 35.349 216.119 35.397 216.377 35.397C216.701 35.397 216.965 35.334 217.169 35.208C217.373 35.082 217.475 34.917 217.475 34.713C217.475 34.545 217.415 34.413 217.295 34.317C217.175 34.221 216.989 34.155 216.737 34.119L215.909 34.002C215.453 33.936 215.111 33.795 214.883 33.579C214.655 33.363 214.541 33.075 214.541 32.715C214.541 32.439 214.616 32.199 214.766 31.995C214.916 31.785 215.126 31.623 215.396 31.509C215.666 31.389 215.981 31.329 216.341 31.329C216.671 31.329 216.989 31.377 217.295 31.473C217.601 31.569 217.895 31.719 218.177 31.923L217.718 32.517C217.466 32.349 217.22 32.226 216.98 32.148C216.746 32.07 216.509 32.031 216.269 32.031C215.993 32.031 215.771 32.091 215.603 32.211C215.435 32.325 215.351 32.475 215.351 32.661C215.351 32.829 215.408 32.961 215.522 33.057C215.642 33.147 215.837 33.21 216.107 33.246L216.935 33.363C217.391 33.429 217.736 33.57 217.97 33.786C218.204 33.996 218.321 34.281 218.321 34.641C218.321 34.917 218.237 35.166 218.069 35.388C217.901 35.604 217.673 35.775 217.385 35.901C217.097 36.027 216.77 36.09 216.404 36.09ZM221.685 36.09C221.241 36.09 220.836 35.985 220.47 35.775C220.11 35.565 219.825 35.28 219.615 34.92C219.405 34.56 219.3 34.158 219.3 33.714C219.3 33.27 219.405 32.868 219.615 32.508C219.825 32.148 220.11 31.863 220.47 31.653C220.836 31.437 221.241 31.329 221.685 31.329C222.135 31.329 222.54 31.437 222.9 31.653C223.26 31.863 223.545 32.148 223.755 32.508C223.965 32.868 224.07 33.27 224.07 33.714C224.07 34.158 223.965 34.56 223.755 34.92C223.545 35.28 223.26 35.565 222.9 35.775C222.54 35.985 222.135 36.09 221.685 36.09ZM221.685 35.298C221.967 35.298 222.222 35.229 222.45 35.091C222.678 34.947 222.858 34.755 222.99 34.515C223.122 34.275 223.188 34.005 223.188 33.705C223.188 33.411 223.119 33.147 222.981 32.913C222.849 32.673 222.669 32.481 222.441 32.337C222.219 32.193 221.967 32.121 221.685 32.121C221.403 32.121 221.148 32.193 220.92 32.337C220.698 32.481 220.518 32.673 220.38 32.913C220.248 33.147 220.182 33.411 220.182 33.705C220.182 34.005 220.248 34.275 220.38 34.515C220.512 34.755 220.692 34.947 220.92 35.091C221.148 35.229 221.403 35.298 221.685 35.298ZM225.371 36V31.419H226.271V31.887C226.625 31.515 227.084 31.329 227.648 31.329C228.002 31.329 228.311 31.404 228.575 31.554C228.845 31.704 229.055 31.914 229.205 32.184C229.361 32.454 229.439 32.766 229.439 33.12V36H228.539V33.273C228.539 32.913 228.437 32.631 228.233 32.427C228.035 32.217 227.756 32.112 227.396 32.112C227.156 32.112 226.94 32.163 226.748 32.265C226.556 32.367 226.397 32.514 226.271 32.706V36H225.371ZM232.376 36.081C232.046 36.081 231.755 36.024 231.503 35.91C231.251 35.79 231.053 35.625 230.909 35.415C230.765 35.205 230.693 34.962 230.693 34.686C230.693 34.254 230.858 33.915 231.188 33.669C231.518 33.417 231.971 33.291 232.547 33.291C232.997 33.291 233.414 33.378 233.798 33.552V33.066C233.798 32.736 233.702 32.49 233.51 32.328C233.324 32.166 233.048 32.085 232.682 32.085C232.472 32.085 232.253 32.118 232.025 32.184C231.797 32.244 231.542 32.34 231.26 32.472L230.927 31.797C231.275 31.635 231.599 31.518 231.899 31.446C232.199 31.368 232.502 31.329 232.808 31.329C233.402 31.329 233.861 31.47 234.185 31.752C234.515 32.034 234.68 32.436 234.68 32.958V36H233.798V35.604C233.594 35.766 233.375 35.886 233.141 35.964C232.907 36.042 232.652 36.081 232.376 36.081ZM231.557 34.668C231.557 34.89 231.65 35.07 231.836 35.208C232.028 35.346 232.277 35.415 232.583 35.415C232.823 35.415 233.042 35.379 233.24 35.307C233.444 35.235 233.63 35.124 233.798 34.974V34.2C233.624 34.098 233.441 34.026 233.249 33.984C233.063 33.936 232.853 33.912 232.619 33.912C232.289 33.912 232.028 33.981 231.836 34.119C231.65 34.251 231.557 34.434 231.557 34.668ZM236.167 36V29.7L237.067 29.529V36H236.167ZM238.577 36V31.419H239.477V36H238.577ZM239.027 30.681C238.877 30.681 238.748 30.627 238.64 30.519C238.532 30.405 238.478 30.273 238.478 30.123C238.478 29.967 238.532 29.838 238.64 29.736C238.748 29.628 238.877 29.574 239.027 29.574C239.183 29.574 239.315 29.628 239.423 29.736C239.531 29.838 239.585 29.967 239.585 30.123C239.585 30.273 239.531 30.405 239.423 30.519C239.315 30.627 239.183 30.681 239.027 30.681ZM240.717 36V35.334L243.291 32.193H240.744V31.419H244.416V32.076L241.842 35.226H244.461V36H240.717ZM247.79 36.081C247.34 36.081 246.932 35.976 246.566 35.766C246.206 35.556 245.918 35.271 245.702 34.911C245.492 34.551 245.387 34.149 245.387 33.705C245.387 33.267 245.489 32.871 245.693 32.517C245.897 32.157 246.173 31.872 246.521 31.662C246.869 31.446 247.256 31.338 247.682 31.338C248.108 31.338 248.486 31.446 248.816 31.662C249.146 31.872 249.407 32.16 249.599 32.526C249.797 32.886 249.896 33.294 249.896 33.75V34.002H246.287C246.335 34.254 246.428 34.479 246.566 34.677C246.71 34.875 246.89 35.031 247.106 35.145C247.328 35.259 247.568 35.316 247.826 35.316C248.048 35.316 248.261 35.283 248.465 35.217C248.675 35.145 248.849 35.043 248.987 34.911L249.563 35.478C249.293 35.682 249.014 35.835 248.726 35.937C248.444 36.033 248.132 36.081 247.79 36.081ZM246.296 33.327H249.005C248.969 33.087 248.885 32.877 248.753 32.697C248.627 32.511 248.468 32.367 248.276 32.265C248.09 32.157 247.886 32.103 247.664 32.103C247.436 32.103 247.226 32.154 247.034 32.256C246.842 32.358 246.68 32.502 246.548 32.688C246.422 32.868 246.338 33.081 246.296 33.327ZM253.327 36.072C252.901 36.072 252.511 35.967 252.157 35.757C251.803 35.547 251.524 35.265 251.32 34.911C251.116 34.551 251.014 34.149 251.014 33.705C251.014 33.261 251.116 32.862 251.32 32.508C251.53 32.154 251.812 31.872 252.166 31.662C252.52 31.452 252.913 31.347 253.345 31.347C253.597 31.347 253.84 31.386 254.074 31.464C254.308 31.542 254.524 31.656 254.722 31.806V29.7L255.622 29.529V36H254.731V35.559C254.341 35.901 253.873 36.072 253.327 36.072ZM253.444 35.289C253.708 35.289 253.948 35.241 254.164 35.145C254.386 35.049 254.572 34.911 254.722 34.731V32.67C254.572 32.502 254.386 32.37 254.164 32.274C253.948 32.172 253.708 32.121 253.444 32.121C253.156 32.121 252.895 32.19 252.661 32.328C252.427 32.466 252.241 32.655 252.103 32.895C251.965 33.129 251.896 33.396 251.896 33.696C251.896 33.996 251.965 34.266 252.103 34.506C252.241 34.746 252.427 34.938 252.661 35.082C252.895 35.22 253.156 35.289 253.444 35.289ZM259.577 36V29.7H262.43C262.85 29.7 263.216 29.778 263.528 29.934C263.846 30.09 264.092 30.309 264.266 30.591C264.446 30.867 264.536 31.191 264.536 31.563C264.536 31.977 264.419 32.334 264.185 32.634C263.951 32.934 263.636 33.15 263.24 33.282L264.644 36H263.6L262.295 33.417H260.522V36H259.577ZM260.522 32.625H262.358C262.73 32.625 263.027 32.532 263.249 32.346C263.477 32.154 263.591 31.896 263.591 31.572C263.591 31.26 263.477 31.008 263.249 30.816C263.027 30.624 262.73 30.528 262.358 30.528H260.522V32.625ZM267.775 36.081C267.325 36.081 266.917 35.976 266.551 35.766C266.191 35.556 265.903 35.271 265.687 34.911C265.477 34.551 265.372 34.149 265.372 33.705C265.372 33.267 265.474 32.871 265.678 32.517C265.882 32.157 266.158 31.872 266.506 31.662C266.854 31.446 267.241 31.338 267.667 31.338C268.093 31.338 268.471 31.446 268.801 31.662C269.131 31.872 269.392 32.16 269.584 32.526C269.782 32.886 269.881 33.294 269.881 33.75V34.002H266.272C266.32 34.254 266.413 34.479 266.551 34.677C266.695 34.875 266.875 35.031 267.091 35.145C267.313 35.259 267.553 35.316 267.811 35.316C268.033 35.316 268.246 35.283 268.45 35.217C268.66 35.145 268.834 35.043 268.972 34.911L269.548 35.478C269.278 35.682 268.999 35.835 268.711 35.937C268.429 36.033 268.117 36.081 267.775 36.081ZM266.281 33.327H268.99C268.954 33.087 268.87 32.877 268.738 32.697C268.612 32.511 268.453 32.367 268.261 32.265C268.075 32.157 267.871 32.103 267.649 32.103C267.421 32.103 267.211 32.154 267.019 32.256C266.827 32.358 266.665 32.502 266.533 32.688C266.407 32.868 266.323 33.081 266.281 33.327ZM273.357 36.081C272.919 36.081 272.52 35.976 272.16 35.766C271.8 35.556 271.515 35.271 271.305 34.911C271.101 34.551 270.999 34.149 270.999 33.705C270.999 33.261 271.104 32.862 271.314 32.508C271.524 32.148 271.806 31.863 272.16 31.653C272.52 31.437 272.919 31.329 273.357 31.329C273.705 31.329 274.038 31.395 274.356 31.527C274.68 31.659 274.959 31.845 275.193 32.085L274.635 32.706C274.461 32.514 274.266 32.37 274.05 32.274C273.834 32.178 273.609 32.13 273.375 32.13C273.099 32.13 272.847 32.199 272.619 32.337C272.397 32.475 272.22 32.664 272.088 32.904C271.956 33.144 271.89 33.411 271.89 33.705C271.89 33.999 271.956 34.266 272.088 34.506C272.22 34.746 272.4 34.938 272.628 35.082C272.856 35.22 273.111 35.289 273.393 35.289C273.627 35.289 273.846 35.244 274.05 35.154C274.254 35.058 274.446 34.92 274.626 34.74L275.175 35.316C274.935 35.562 274.656 35.751 274.338 35.883C274.026 36.015 273.699 36.081 273.357 36.081ZM278.395 36.09C277.951 36.09 277.546 35.985 277.18 35.775C276.82 35.565 276.535 35.28 276.325 34.92C276.115 34.56 276.01 34.158 276.01 33.714C276.01 33.27 276.115 32.868 276.325 32.508C276.535 32.148 276.82 31.863 277.18 31.653C277.546 31.437 277.951 31.329 278.395 31.329C278.845 31.329 279.25 31.437 279.61 31.653C279.97 31.863 280.255 32.148 280.465 32.508C280.675 32.868 280.78 33.27 280.78 33.714C280.78 34.158 280.675 34.56 280.465 34.92C280.255 35.28 279.97 35.565 279.61 35.775C279.25 35.985 278.845 36.09 278.395 36.09ZM278.395 35.298C278.677 35.298 278.932 35.229 279.16 35.091C279.388 34.947 279.568 34.755 279.7 34.515C279.832 34.275 279.898 34.005 279.898 33.705C279.898 33.411 279.829 33.147 279.691 32.913C279.559 32.673 279.379 32.481 279.151 32.337C278.929 32.193 278.677 32.121 278.395 32.121C278.113 32.121 277.858 32.193 277.63 32.337C277.408 32.481 277.228 32.673 277.09 32.913C276.958 33.147 276.892 33.411 276.892 33.705C276.892 34.005 276.958 34.275 277.09 34.515C277.222 34.755 277.402 34.947 277.63 35.091C277.858 35.229 278.113 35.298 278.395 35.298ZM282.081 36V31.419H282.981V31.86C283.323 31.506 283.752 31.329 284.268 31.329C284.58 31.329 284.856 31.398 285.096 31.536C285.342 31.674 285.537 31.86 285.681 32.094C285.873 31.842 286.098 31.653 286.356 31.527C286.614 31.395 286.905 31.329 287.229 31.329C287.571 31.329 287.868 31.404 288.12 31.554C288.378 31.704 288.579 31.914 288.723 32.184C288.873 32.454 288.948 32.766 288.948 33.12V36H288.048V33.273C288.048 32.913 287.952 32.631 287.76 32.427C287.574 32.217 287.319 32.112 286.995 32.112C286.773 32.112 286.572 32.163 286.392 32.265C286.212 32.367 286.056 32.523 285.924 32.733C285.936 32.793 285.945 32.856 285.951 32.922C285.957 32.988 285.96 33.054 285.96 33.12V36H285.069V33.273C285.069 32.913 284.973 32.631 284.781 32.427C284.595 32.217 284.34 32.112 284.016 32.112C283.8 32.112 283.605 32.16 283.431 32.256C283.257 32.346 283.107 32.484 282.981 32.67V36H282.081ZM290.433 36V31.419H291.333V31.86C291.675 31.506 292.104 31.329 292.62 31.329C292.932 31.329 293.208 31.398 293.448 31.536C293.694 31.674 293.889 31.86 294.033 32.094C294.225 31.842 294.45 31.653 294.708 31.527C294.966 31.395 295.257 31.329 295.581 31.329C295.923 31.329 296.22 31.404 296.472 31.554C296.73 31.704 296.931 31.914 297.075 32.184C297.225 32.454 297.3 32.766 297.3 33.12V36H296.4V33.273C296.4 32.913 296.304 32.631 296.112 32.427C295.926 32.217 295.671 32.112 295.347 32.112C295.125 32.112 294.924 32.163 294.744 32.265C294.564 32.367 294.408 32.523 294.276 32.733C294.288 32.793 294.297 32.856 294.303 32.922C294.309 32.988 294.312 33.054 294.312 33.12V36H293.421V33.273C293.421 32.913 293.325 32.631 293.133 32.427C292.947 32.217 292.692 32.112 292.368 32.112C292.152 32.112 291.957 32.16 291.783 32.256C291.609 32.346 291.459 32.484 291.333 32.67V36H290.433ZM300.98 36.081C300.53 36.081 300.122 35.976 299.756 35.766C299.396 35.556 299.108 35.271 298.892 34.911C298.682 34.551 298.577 34.149 298.577 33.705C298.577 33.267 298.679 32.871 298.883 32.517C299.087 32.157 299.363 31.872 299.711 31.662C300.059 31.446 300.446 31.338 300.872 31.338C301.298 31.338 301.676 31.446 302.006 31.662C302.336 31.872 302.597 32.16 302.789 32.526C302.987 32.886 303.086 33.294 303.086 33.75V34.002H299.477C299.525 34.254 299.618 34.479 299.756 34.677C299.9 34.875 300.08 35.031 300.296 35.145C300.518 35.259 300.758 35.316 301.016 35.316C301.238 35.316 301.451 35.283 301.655 35.217C301.865 35.145 302.039 35.043 302.177 34.911L302.753 35.478C302.483 35.682 302.204 35.835 301.916 35.937C301.634 36.033 301.322 36.081 300.98 36.081ZM299.486 33.327H302.195C302.159 33.087 302.075 32.877 301.943 32.697C301.817 32.511 301.658 32.367 301.466 32.265C301.28 32.157 301.076 32.103 300.854 32.103C300.626 32.103 300.416 32.154 300.224 32.256C300.032 32.358 299.87 32.502 299.738 32.688C299.612 32.868 299.528 33.081 299.486 33.327ZM304.393 36V31.419H305.293V31.887C305.647 31.515 306.106 31.329 306.67 31.329C307.024 31.329 307.333 31.404 307.597 31.554C307.867 31.704 308.077 31.914 308.227 32.184C308.383 32.454 308.461 32.766 308.461 33.12V36H307.561V33.273C307.561 32.913 307.459 32.631 307.255 32.427C307.057 32.217 306.778 32.112 306.418 32.112C306.178 32.112 305.962 32.163 305.77 32.265C305.578 32.367 305.419 32.514 305.293 32.706V36H304.393ZM312.056 36.072C311.63 36.072 311.24 35.967 310.886 35.757C310.532 35.547 310.253 35.265 310.049 34.911C309.845 34.551 309.743 34.149 309.743 33.705C309.743 33.261 309.845 32.862 310.049 32.508C310.259 32.154 310.541 31.872 310.895 31.662C311.249 31.452 311.642 31.347 312.074 31.347C312.326 31.347 312.569 31.386 312.803 31.464C313.037 31.542 313.253 31.656 313.451 31.806V29.7L314.351 29.529V36H313.46V35.559C313.07 35.901 312.602 36.072 312.056 36.072ZM312.173 35.289C312.437 35.289 312.677 35.241 312.893 35.145C313.115 35.049 313.301 34.911 313.451 34.731V32.67C313.301 32.502 313.115 32.37 312.893 32.274C312.677 32.172 312.437 32.121 312.173 32.121C311.885 32.121 311.624 32.19 311.39 32.328C311.156 32.466 310.97 32.655 310.832 32.895C310.694 33.129 310.625 33.396 310.625 33.696C310.625 33.996 310.694 34.266 310.832 34.506C310.97 34.746 311.156 34.938 311.39 35.082C311.624 35.22 311.885 35.289 312.173 35.289ZM317.316 36.081C316.986 36.081 316.695 36.024 316.443 35.91C316.191 35.79 315.993 35.625 315.849 35.415C315.705 35.205 315.633 34.962 315.633 34.686C315.633 34.254 315.798 33.915 316.128 33.669C316.458 33.417 316.911 33.291 317.487 33.291C317.937 33.291 318.354 33.378 318.738 33.552V33.066C318.738 32.736 318.642 32.49 318.45 32.328C318.264 32.166 317.988 32.085 317.622 32.085C317.412 32.085 317.193 32.118 316.965 32.184C316.737 32.244 316.482 32.34 316.2 32.472L315.867 31.797C316.215 31.635 316.539 31.518 316.839 31.446C317.139 31.368 317.442 31.329 317.748 31.329C318.342 31.329 318.801 31.47 319.125 31.752C319.455 32.034 319.62 32.436 319.62 32.958V36H318.738V35.604C318.534 35.766 318.315 35.886 318.081 35.964C317.847 36.042 317.592 36.081 317.316 36.081ZM316.497 34.668C316.497 34.89 316.59 35.07 316.776 35.208C316.968 35.346 317.217 35.415 317.523 35.415C317.763 35.415 317.982 35.379 318.18 35.307C318.384 35.235 318.57 35.124 318.738 34.974V34.2C318.564 34.098 318.381 34.026 318.189 33.984C318.003 33.936 317.793 33.912 317.559 33.912C317.229 33.912 316.968 33.981 316.776 34.119C316.59 34.251 316.497 34.434 316.497 34.668ZM322.937 36.081C322.493 36.081 322.154 35.979 321.92 35.775C321.686 35.565 321.569 35.262 321.569 34.866V32.175H320.597V31.419H321.569V30.249L322.46 30.033V31.419H323.81V32.175H322.46V34.659C322.46 34.893 322.511 35.061 322.613 35.163C322.721 35.259 322.895 35.307 323.135 35.307C323.261 35.307 323.372 35.298 323.468 35.28C323.57 35.262 323.678 35.235 323.792 35.199V35.955C323.672 35.997 323.531 36.027 323.369 36.045C323.213 36.069 323.069 36.081 322.937 36.081ZM324.923 36V31.419H325.823V36H324.923ZM325.373 30.681C325.223 30.681 325.094 30.627 324.986 30.519C324.878 30.405 324.824 30.273 324.824 30.123C324.824 29.967 324.878 29.838 324.986 29.736C325.094 29.628 325.223 29.574 325.373 29.574C325.529 29.574 325.661 29.628 325.769 29.736C325.877 29.838 325.931 29.967 325.931 30.123C325.931 30.273 325.877 30.405 325.769 30.519C325.661 30.627 325.529 30.681 325.373 30.681ZM329.511 36.09C329.067 36.09 328.662 35.985 328.296 35.775C327.936 35.565 327.651 35.28 327.441 34.92C327.231 34.56 327.126 34.158 327.126 33.714C327.126 33.27 327.231 32.868 327.441 32.508C327.651 32.148 327.936 31.863 328.296 31.653C328.662 31.437 329.067 31.329 329.511 31.329C329.961 31.329 330.366 31.437 330.726 31.653C331.086 31.863 331.371 32.148 331.581 32.508C331.791 32.868 331.896 33.27 331.896 33.714C331.896 34.158 331.791 34.56 331.581 34.92C331.371 35.28 331.086 35.565 330.726 35.775C330.366 35.985 329.961 36.09 329.511 36.09ZM329.511 35.298C329.793 35.298 330.048 35.229 330.276 35.091C330.504 34.947 330.684 34.755 330.816 34.515C330.948 34.275 331.014 34.005 331.014 33.705C331.014 33.411 330.945 33.147 330.807 32.913C330.675 32.673 330.495 32.481 330.267 32.337C330.045 32.193 329.793 32.121 329.511 32.121C329.229 32.121 328.974 32.193 328.746 32.337C328.524 32.481 328.344 32.673 328.206 32.913C328.074 33.147 328.008 33.411 328.008 33.705C328.008 34.005 328.074 34.275 328.206 34.515C328.338 34.755 328.518 34.947 328.746 35.091C328.974 35.229 329.229 35.298 329.511 35.298ZM333.197 36V31.419H334.097V31.887C334.451 31.515 334.91 31.329 335.474 31.329C335.828 31.329 336.137 31.404 336.401 31.554C336.671 31.704 336.881 31.914 337.031 32.184C337.187 32.454 337.265 32.766 337.265 33.12V36H336.365V33.273C336.365 32.913 336.263 32.631 336.059 32.427C335.861 32.217 335.582 32.112 335.222 32.112C334.982 32.112 334.766 32.163 334.574 32.265C334.382 32.367 334.223 32.514 334.097 32.706V36H333.197ZM340.328 36.09C339.932 36.09 339.56 36.033 339.212 35.919C338.87 35.799 338.573 35.631 338.321 35.415L338.816 34.821C339.05 35.007 339.29 35.151 339.536 35.253C339.788 35.349 340.043 35.397 340.301 35.397C340.625 35.397 340.889 35.334 341.093 35.208C341.297 35.082 341.399 34.917 341.399 34.713C341.399 34.545 341.339 34.413 341.219 34.317C341.099 34.221 340.913 34.155 340.661 34.119L339.833 34.002C339.377 33.936 339.035 33.795 338.807 33.579C338.579 33.363 338.465 33.075 338.465 32.715C338.465 32.439 338.54 32.199 338.69 31.995C338.84 31.785 339.05 31.623 339.32 31.509C339.59 31.389 339.905 31.329 340.265 31.329C340.595 31.329 340.913 31.377 341.219 31.473C341.525 31.569 341.819 31.719 342.101 31.923L341.642 32.517C341.39 32.349 341.144 32.226 340.904 32.148C340.67 32.07 340.433 32.031 340.193 32.031C339.917 32.031 339.695 32.091 339.527 32.211C339.359 32.325 339.275 32.475 339.275 32.661C339.275 32.829 339.332 32.961 339.446 33.057C339.566 33.147 339.761 33.21 340.031 33.246L340.859 33.363C341.315 33.429 341.66 33.57 341.894 33.786C342.128 33.996 342.245 34.281 342.245 34.641C342.245 34.917 342.161 35.166 341.993 35.388C341.825 35.604 341.597 35.775 341.309 35.901C341.021 36.027 340.694 36.09 340.328 36.09Z" fill="#212529"/>
<g clip-path="url(#clip0_1_39)">
<path d="M7 13.9025C10.7717 13.9025 13.8293 10.8449 13.8293 7.07321C13.8293 3.30151 10.7717 0.243942 7 0.243942C3.2283 0.243942 0.170731 3.30151 0.170731 7.07321C0.170731 10.8449 3.2283 13.9025 7 13.9025Z" fill="#555AE2" fill-opacity="0.05"/>
<path d="M4.36936 10.7561L5.01671 7.95753L2.84558 6.07522L5.71387 5.82622L6.82933 3.187L7.94476 5.82622L10.813 6.07522L8.64192 7.95753L9.28927 10.7561L6.82933 9.27217L4.36936 10.7561Z" fill="#555AE2"/>
</g>
<g clip-path="url(#clip1_1_39)">
<path d="M7 38.9025C10.7717 38.9025 13.8293 35.8449 13.8293 32.0732C13.8293 28.3015 10.7717 25.2439 7 25.2439C3.2283 25.2439 0.170731 28.3015 0.170731 32.0732C0.170731 35.8449 3.2283 38.9025 7 38.9025Z" fill="#555AE2" fill-opacity="0.05"/>
<path d="M4.36936 35.7561L5.01671 32.9575L2.84558 31.0752L5.71387 30.8262L6.82933 28.187L7.94476 30.8262L10.813 31.0752L8.64192 32.9575L9.28927 35.7561L6.82933 34.2722L4.36936 35.7561Z" fill="#555AE2"/>
</g>
<g clip-path="url(#clip2_1_39)">
<path d="M186 13.9025C189.772 13.9025 192.829 10.8449 192.829 7.07321C192.829 3.30151 189.772 0.243942 186 0.243942C182.228 0.243942 179.171 3.30151 179.171 7.07321C179.171 10.8449 182.228 13.9025 186 13.9025Z" fill="#555AE2" fill-opacity="0.05"/>
<path d="M183.369 10.7561L184.017 7.95753L181.846 6.07522L184.714 5.82622L185.829 3.187L186.945 5.82622L189.813 6.07522L187.642 7.95753L188.289 10.7561L185.829 9.27217L183.369 10.7561Z" fill="#555AE2"/>
</g>
<g clip-path="url(#clip3_1_39)">
<path d="M186 38.9025C189.772 38.9025 192.829 35.8449 192.829 32.0732C192.829 28.3015 189.772 25.2439 186 25.2439C182.228 25.2439 179.171 28.3015 179.171 32.0732C179.171 35.8449 182.228 38.9025 186 38.9025Z" fill="#555AE2" fill-opacity="0.05"/>
<path d="M183.369 35.7561L184.017 32.9575L181.846 31.0752L184.714 30.8262L185.829 28.187L186.945 30.8262L189.813 31.0752L187.642 32.9575L188.289 35.7561L185.829 34.2722L183.369 35.7561Z" fill="#555AE2"/>
</g>
<defs>
<clipPath id="clip0_1_39">
<rect width="14" height="14" fill="white"/>
</clipPath>
<clipPath id="clip1_1_39">
<rect width="14" height="14" fill="white" transform="translate(0 25)"/>
</clipPath>
<clipPath id="clip2_1_39">
<rect width="14" height="14" fill="white" transform="translate(179)"/>
</clipPath>
<clipPath id="clip3_1_39">
<rect width="14" height="14" fill="white" transform="translate(179 25)"/>
</clipPath>
</defs>
</svg>
