<svg width="346" height="62" viewBox="0 0 346 62" fill="none" xmlns="http://www.w3.org/2000/svg">
<path d="M3.55 53V18H8.8V33H27.4V18H32.65V53H27.4V37.75H8.8V53H3.55ZM52.7805 53.5C50.3138 53.5 48.0638 52.9167 46.0305 51.75C44.0305 50.5833 42.4471 49 41.2805 47C40.1138 45 39.5305 42.7667 39.5305 40.3C39.5305 37.8333 40.1138 35.6 41.2805 33.6C42.4471 31.6 44.0305 30.0167 46.0305 28.85C48.0638 27.65 50.3138 27.05 52.7805 27.05C55.2805 27.05 57.5305 27.65 59.5305 28.85C61.5305 30.0167 63.1138 31.6 64.2805 33.6C65.4471 35.6 66.0305 37.8333 66.0305 40.3C66.0305 42.7667 65.4471 45 64.2805 47C63.1138 49 61.5305 50.5833 59.5305 51.75C57.5305 52.9167 55.2805 53.5 52.7805 53.5ZM52.7805 49.1C54.3471 49.1 55.7638 48.7167 57.0305 47.95C58.2971 47.15 59.2971 46.0833 60.0305 44.75C60.7638 43.4167 61.1305 41.9167 61.1305 40.25C61.1305 38.6167 60.7471 37.15 59.9805 35.85C59.2471 34.5167 58.2471 33.45 56.9805 32.65C55.7471 31.85 54.3471 31.45 52.7805 31.45C51.2138 31.45 49.7971 31.85 48.5305 32.65C47.2971 33.45 46.2971 34.5167 45.5305 35.85C44.7971 37.15 44.4305 38.6167 44.4305 40.25C44.4305 41.9167 44.7971 43.4167 45.5305 44.75C46.2638 46.0833 47.2638 47.15 48.5305 47.95C49.7971 48.7167 51.2138 49.1 52.7805 49.1ZM76.5203 53L69.4203 27.55H74.2703L79.2203 46.25L85.0203 27.55H89.3203L95.1203 46.25L100.07 27.55H104.77L97.6203 53H92.8203L87.1203 34.35L81.3703 53H76.5203ZM121.792 53V27.55H126.792V53H121.792ZM124.292 23.45C123.458 23.45 122.742 23.15 122.142 22.55C121.542 21.9167 121.242 21.1833 121.242 20.35C121.242 19.4833 121.542 18.7667 122.142 18.2C122.742 17.6 123.458 17.3 124.292 17.3C125.158 17.3 125.892 17.6 126.492 18.2C127.092 18.7667 127.392 19.4833 127.392 20.35C127.392 21.1833 127.092 21.9167 126.492 22.55C125.892 23.15 125.158 23.45 124.292 23.45ZM145.08 53.45C142.614 53.45 140.73 52.8833 139.43 51.75C138.13 50.5833 137.48 48.9 137.48 46.7V31.75H132.08V27.55H137.48V21.05L142.43 19.85V27.55H149.93V31.75H142.43V45.55C142.43 46.85 142.714 47.7833 143.28 48.35C143.88 48.8833 144.847 49.15 146.18 49.15C146.88 49.15 147.497 49.1 148.03 49C148.597 48.9 149.197 48.75 149.83 48.55V52.75C149.164 52.9833 148.38 53.15 147.48 53.25C146.614 53.3833 145.814 53.45 145.08 53.45Z" fill="#212529"/>
<g filter="url(#filter0_d_1_38)">
<path d="M178.008 53L170.624 26.532H175.668L180.816 45.98L186.848 26.532H191.32L197.352 45.98L202.5 26.532H207.388L199.952 53H194.96L189.032 33.604L183.052 53H178.008ZM224.739 53.52C222.174 53.52 219.834 52.9133 217.719 51.7C215.639 50.4867 213.993 48.84 212.779 46.76C211.566 44.68 210.959 42.3573 210.959 39.792C210.959 37.2267 211.566 34.904 212.779 32.824C213.993 30.744 215.639 29.0973 217.719 27.884C219.834 26.636 222.174 26.012 224.739 26.012C227.339 26.012 229.679 26.636 231.759 27.884C233.839 29.0973 235.486 30.744 236.699 32.824C237.913 34.904 238.519 37.2267 238.519 39.792C238.519 42.3573 237.913 44.68 236.699 46.76C235.486 48.84 233.839 50.4867 231.759 51.7C229.679 52.9133 227.339 53.52 224.739 53.52ZM224.739 48.944C226.369 48.944 227.842 48.5453 229.159 47.748C230.477 46.916 231.517 45.8067 232.279 44.42C233.042 43.0333 233.423 41.4733 233.423 39.74C233.423 38.0413 233.025 36.516 232.227 35.164C231.465 33.7773 230.425 32.668 229.107 31.836C227.825 31.004 226.369 30.588 224.739 30.588C223.11 30.588 221.637 31.004 220.319 31.836C219.037 32.668 217.997 33.7773 217.199 35.164C216.437 36.516 216.055 38.0413 216.055 39.74C216.055 41.4733 216.437 43.0333 217.199 44.42C217.962 45.8067 219.002 46.916 220.319 47.748C221.637 48.5453 223.11 48.944 224.739 48.944ZM244.997 53V26.532H250.197V29.912C251.029 28.664 252.051 27.6933 253.265 27C254.513 26.272 255.917 25.908 257.477 25.908C258.551 25.9427 259.435 26.0987 260.129 26.376V31.056C259.643 30.848 259.141 30.7093 258.621 30.64C258.101 30.536 257.581 30.484 257.061 30.484C255.535 30.484 254.183 30.9 253.005 31.732C251.826 32.5293 250.89 33.708 250.197 35.268V53H244.997ZM265.853 53V16.6L271.053 15.612V38.128L283.897 26.532H289.981L276.305 38.908L290.709 53H283.845L271.053 40.572V53H265.853ZM303.428 53.52C301.14 53.52 298.99 53.1907 296.98 52.532C295.004 51.8387 293.288 50.868 291.832 49.62L294.692 46.188C296.044 47.2627 297.43 48.0947 298.852 48.684C300.308 49.2387 301.781 49.516 303.272 49.516C305.144 49.516 306.669 49.152 307.848 48.424C309.026 47.696 309.616 46.7427 309.616 45.564C309.616 44.5933 309.269 43.8307 308.576 43.276C307.882 42.7213 306.808 42.34 305.352 42.132L300.568 41.456C297.933 41.0747 295.957 40.26 294.64 39.012C293.322 37.764 292.664 36.1 292.664 34.02C292.664 32.4253 293.097 31.0387 293.964 29.86C294.83 28.6467 296.044 27.7107 297.604 27.052C299.164 26.3587 300.984 26.012 303.064 26.012C304.97 26.012 306.808 26.2893 308.576 26.844C310.344 27.3987 312.042 28.2653 313.672 29.444L311.02 32.876C309.564 31.9053 308.142 31.1947 306.756 30.744C305.404 30.2933 304.034 30.068 302.648 30.068C301.053 30.068 299.77 30.4147 298.8 31.108C297.829 31.7667 297.344 32.6333 297.344 33.708C297.344 34.6787 297.673 35.4413 298.332 35.996C299.025 36.516 300.152 36.88 301.712 37.088L306.496 37.764C309.13 38.1453 311.124 38.96 312.476 40.208C313.828 41.4213 314.504 43.068 314.504 45.148C314.504 46.7427 314.018 48.1813 313.048 49.464C312.077 50.712 310.76 51.7 309.096 52.428C307.432 53.156 305.542 53.52 303.428 53.52ZM324.985 42.34C324.916 40.7453 325.003 39.376 325.245 38.232C325.488 37.088 325.921 36.0653 326.545 35.164C327.204 34.2627 328.071 33.4133 329.145 32.616L331.589 30.9C332.941 29.9293 333.895 29.0453 334.449 28.248C335.004 27.416 335.281 26.4973 335.281 25.492C335.281 24.5213 334.969 23.672 334.345 22.944C333.756 22.216 332.959 21.6267 331.953 21.176C330.948 20.7253 329.804 20.5 328.521 20.5C326.892 20.5 325.367 20.8987 323.945 21.696C322.524 22.4933 321.311 23.62 320.305 25.076L316.197 22.944C317.099 21.488 318.191 20.24 319.473 19.2C320.791 18.16 322.229 17.38 323.789 16.86C325.349 16.3053 327.013 16.028 328.781 16.028C331 16.028 332.976 16.444 334.709 17.276C336.443 18.0733 337.812 19.1653 338.817 20.552C339.857 21.9387 340.377 23.5333 340.377 25.336C340.377 26.5147 340.187 27.5893 339.805 28.56C339.424 29.5307 338.783 30.484 337.881 31.42C336.98 32.3213 335.732 33.3267 334.137 34.436L332.525 35.58C331.312 36.3773 330.463 37.3133 329.977 38.388C329.492 39.428 329.301 40.7453 329.405 42.34H324.985ZM327.221 53.364C326.32 53.364 325.54 53.052 324.881 52.428C324.257 51.7693 323.945 50.9893 323.945 50.088C323.945 49.1867 324.257 48.424 324.881 47.8C325.54 47.1413 326.32 46.812 327.221 46.812C328.123 46.812 328.885 47.1413 329.509 47.8C330.168 48.424 330.497 49.1867 330.497 50.088C330.497 50.9893 330.168 51.7693 329.509 52.428C328.885 53.052 328.123 53.364 327.221 53.364Z" fill="#212529"/>
</g>
<defs>
<filter id="filter0_d_1_38" x="166.624" y="15.612" width="177.753" height="45.908" filterUnits="userSpaceOnUse" color-interpolation-filters="sRGB">
<feFlood flood-opacity="0" result="BackgroundImageFix"/>
<feColorMatrix in="SourceAlpha" type="matrix" values="0 0 0 0 0 0 0 0 0 0 0 0 0 0 0 0 0 0 127 0" result="hardAlpha"/>
<feOffset dy="4"/>
<feGaussianBlur stdDeviation="2"/>
<feComposite in2="hardAlpha" operator="out"/>
<feColorMatrix type="matrix" values="0 0 0 0 1 0 0 0 0 0.72549 0 0 0 0 0.243137 0 0 0 1 0"/>
<feBlend mode="normal" in2="BackgroundImageFix" result="effect1_dropShadow_1_38"/>
<feBlend mode="normal" in="SourceGraphic" in2="effect1_dropShadow_1_38" result="shape"/>
</filter>
</defs>
</svg>
